<svg width="565" height="565" viewBox="0 0 565 565" fill="none" xmlns="http://www.w3.org/2000/svg">
<path d="M73.6607 288.839C72.6529 292.937 73.0097 297.195 74.0561 301.244C74.5188 303.042 75.1312 304.908 75.9484 306.578C76.527 307.757 77.8143 309.08 77.6988 310.486C77.653 311.045 76.4572 312.084 76.1342 312.664C75.7796 313.309 75.4494 314.299 75.1493 315.039C74.555 316.512 73.7161 318.442 73.5124 319.989C72.9253 324.462 79.3993 324.148 82.3756 324.148C84.1499 324.148 86.0049 324.015 87.7612 324.191C90.5239 324.468 90.6565 323.615 92.9133 322.172C94.5199 321.147 96.1699 321.728 97.3283 319.994C98.7736 317.835 98.3612 315.702 97.2764 313.665C96.5389 312.273 95.8203 310.968 95.8831 309.299C95.9531 307.48 97.1848 306.322 97.4814 304.546C97.7538 302.903 97.5994 300.715 97.4695 299.056C97.2983 296.814 96.2061 295.656 95.4781 293.605C94.1173 289.774 95.3021 285.469 91.9318 282.42C89.1835 279.933 87.4406 276.107 81.351 279.015C77.0382 281.073 74.6733 284.726 73.6607 288.839Z" fill="#161C35"/>
<path d="M63.1665 325.578C63.1665 325.578 58.9187 355.007 59.4419 366.257C59.4419 366.257 64.9963 369.332 67.9435 366.552C67.9435 366.552 73.9463 347.459 76.0928 330.802C76.0928 330.802 72.5444 317.686 63.1665 325.578Z" fill="#F69575"/>
<path d="M67.9434 366.553C67.9434 366.553 63.6678 386.714 62.3589 395.521C62.3589 395.521 60.265 397.146 59.0525 395.141C57.8205 393.104 58.2846 364.872 60.1337 363.626C68.7666 357.806 67.9434 366.553 67.9434 366.553Z" fill="#F69575"/>
<path d="M61.5827 401.592L60.6305 405.083L62.1325 410.038C62.1325 410.038 61.1657 410.712 60.3845 409.053L59.0079 404.95L59.7457 400.982L61.5827 401.592Z" fill="#E1886A"/>
<path d="M60.493 402.681L59.3478 406.108L60.5699 411.143C60.5699 411.143 59.5672 411.766 58.8776 410.064L57.7327 405.887L58.692 401.965L60.493 402.681Z" fill="#E1886A"/>
<path d="M56.4284 402.99L57.5687 398.94L58.8896 393.902L62.1468 393.841L62.5999 399.374L62.5275 402.241L62.3877 406.155L62.4072 407.428C62.4072 407.428 61.3656 407.63 60.8232 405.543L60.4448 401.797L58.7112 404.499L59.2829 411.928C59.2829 411.928 58.6657 412.279 57.9953 411.19L56.1946 403.796L56.4284 402.99Z" fill="#F69575"/>
<path d="M72.8336 333.217C69.0849 334.599 64.9119 332.705 63.5185 328.988C62.1225 325.272 64.0343 321.137 67.7832 319.752C71.5342 318.37 75.7049 320.263 77.1006 323.98C78.4966 327.702 76.586 331.835 72.8336 333.217Z" fill="#F69575"/>
<path d="M76.0928 341.607C76.264 340.678 77.4284 336.617 77.5564 335.632C78.6025 331.015 77.9928 326.363 77.1006 323.98C75.7049 320.263 71.5342 318.37 67.7832 319.752C64.9433 320.801 62.4963 323.051 61.6704 326.486C61.5391 327.423 60.8256 332.447 60.411 334.852C62.6809 339.831 69.5479 341.399 76.0928 341.607Z" fill="#5DC1BB"/>
<path d="M94.6727 303.092V313.671H83.9811V303.092H94.6727Z" fill="#F7906E"/>
<path d="M84.0391 311.08V303.092H94.6727V309.76C87.6528 311.224 85.5408 311.08 84.0391 311.08Z" fill="#E27462"/>
<path d="M84.3064 309.839C84.3064 309.839 81.1507 310.215 79.2632 304.357C79.2632 304.357 74.3164 291.947 80.6107 283.397C83.0385 280.101 89.1691 280.144 92.6478 281.416C97.098 283.046 99.0436 287.711 99.0436 292.088C99.0436 292.091 97.2716 300.238 97.2716 300.238C97.2716 300.238 96.3602 304.101 93.5784 306.29C93.5784 306.29 88.8616 309.901 84.3064 309.839Z" fill="#F69575"/>
<path d="M98.8049 359.816L111.71 327.138C113.26 322.412 109.54 319.257 109.54 319.257L94.6199 313.436H83.981L69.115 319.257C69.115 319.257 65.3965 322.412 66.9466 327.138L79.3524 359.816H98.8049Z" fill="#F69575"/>
<path d="M98.7687 315.058L109.54 319.257C109.54 319.257 113.26 322.412 111.71 327.138L102.339 366.832H76.2281L66.9466 327.138C65.3965 322.412 69.115 319.257 69.115 319.257L79.8609 315.05C79.8609 315.05 82.4285 320.458 89.357 320.423C89.357 320.423 94.5246 321.405 98.7687 315.058Z" fill="#5DC1BB"/>
<path d="M107.934 386.53C108.619 393.413 103.595 399.55 96.7125 400.234C89.8297 400.918 83.694 395.897 83.0095 389.011C82.3225 382.128 87.3489 375.991 94.2293 375.307C101.114 374.623 107.25 379.65 107.934 386.53Z" fill="#161C22"/>
<path d="M93.6484 451.236C93.6484 451.236 94.1327 454.354 99.7691 453.869C99.7691 453.869 105.278 455.155 106.888 447.99C113.231 419.767 107.992 387.642 107.992 387.642C107.992 387.642 94.4437 382.951 83.0095 389.011C83.0095 389.011 88.5519 427.374 93.6484 451.236Z" fill="#161C22"/>
<path d="M78.6966 509.12C78.6966 509.12 79.8117 512.96 81.0953 514.025C82.3792 515.087 87.233 516.594 87.233 516.594L89.9113 516.93C89.9113 516.93 91.7919 518.232 86.7221 519.725C81.6472 521.219 72.6265 517.153 72.6265 517.153L74.408 509.12H78.6966Z" fill="#151B21"/>
<path d="M107.827 385.949C107.129 374.114 98.805 359.816 98.805 359.816H79.3524C79.3524 359.816 69.2586 372.019 67.7446 385.949L83.6195 400.665H94.62C94.62 400.665 105.994 396.445 107.827 385.949Z" fill="#1B242B"/>
<path d="M92.7948 387.77C92.7948 394.691 87.1874 400.298 80.271 400.298C73.352 400.298 67.7446 394.691 67.7446 387.77C67.7446 380.856 73.352 375.243 80.271 375.243C87.1874 375.243 92.7948 380.856 92.7948 387.77Z" fill="#1B242B"/>
<path d="M72.1658 450.743C72.1658 450.743 72.3394 453.893 77.995 453.968C77.995 453.968 83.3495 455.797 85.6603 448.824C94.7693 421.37 92.5851 390.034 92.5851 390.034C92.5851 390.034 79.7236 382.871 67.7446 387.771C67.7446 387.771 69.4585 426.493 72.1658 450.743Z" fill="#1B242B"/>
<path d="M85.6604 448.823C85.6604 448.823 80.7652 510.987 80.3554 513.104C75.7361 516.07 72.6265 513.104 72.6265 513.104C72.6481 510.196 69.7986 480.354 69.4708 475.795C68.909 467.965 67.7446 460.749 72.6939 449.497L85.6604 448.823Z" fill="#1B242B"/>
<path d="M99.6799 509.12C99.6799 509.12 100.796 512.96 102.081 514.025C103.364 515.087 108.217 516.594 108.217 516.594L110.895 516.93C110.895 516.93 112.775 518.232 107.706 519.725C102.636 521.219 93.6097 517.153 93.6097 517.153L95.3913 509.12H99.6799Z" fill="#151B21"/>
<path d="M106.645 448.823C106.645 448.823 101.751 510.987 101.339 513.104C96.7193 516.07 93.6097 513.104 93.6097 513.104C93.6313 510.196 90.7844 480.354 90.4564 475.795C89.8922 467.965 88.7279 460.749 93.6771 449.497L106.645 448.823Z" fill="#161C22"/>
<path d="M102.638 331.553C102.638 331.553 118.168 354.171 125.568 356.392C125.568 356.392 129.484 354.994 129.402 350.95C129.402 350.95 117.877 332.069 112.047 321.632C112.047 321.632 103.084 319.326 102.638 331.553Z" fill="#F69575"/>
<path d="M136.08 348.958C136.08 348.958 149.736 352.646 155.735 352.292C155.735 352.292 157.473 354.312 155.537 355.62C153.573 356.956 125.87 358.139 124.87 356.131C120.304 346.98 136.08 348.958 136.08 348.958Z" fill="#F69575"/>
<path d="M155.352 352.425L158.722 350.143L162.702 348.423C163.274 349.759 161.063 350.63 161.063 350.63C164.315 350.449 167.343 349.469 167.343 349.469C168.522 349.317 168.241 350.353 168.241 350.353C166.81 351.293 162.971 352.108 162.971 352.108C165.193 351.951 168.84 351.168 168.84 351.168C169.832 351.219 169.37 352.132 169.37 352.132C167.806 353.902 163.376 353.732 163.376 353.732C165.046 353.849 168.647 353.21 168.647 353.21C169.267 353.57 168.978 353.847 168.978 353.847C167.955 355.436 163.688 355.263 163.688 355.263L165.286 355.287C167.478 355.127 166.692 356.312 166.692 356.312L165.562 356.576C162.09 357.324 159.284 356.355 159.284 356.355L155.537 355.62L155.352 352.425Z" fill="#F69575"/>
<path d="M113.221 325.578C113.221 329.569 109.986 332.806 105.994 332.806C102.004 332.806 98.7688 329.569 98.7688 325.578C98.7688 321.589 102.004 318.352 105.994 318.352C109.986 318.352 113.221 321.589 113.221 325.578Z" fill="#F69575"/>
<path d="M105.994 341.607C113.221 338.494 116.02 333.67 116.367 327.95L112.088 321.459C110.799 319.488 108.528 318.352 105.994 318.352C102.004 318.352 97.8669 321.589 97.8669 325.578C97.8669 325.578 97.8669 330.086 101.218 334.639C101.881 335.589 103.966 338.968 105.994 341.607Z" fill="#5DC1BB"/>
<path d="M78.9427 381.814C81.3414 379.833 86.31 378.904 89.0389 380.763C90.7552 381.932 90.9725 383.75 93.4532 384.272C95.3623 384.671 97.0475 383.833 99.0604 383.939C102.221 384.115 106.847 383.148 109.878 385.257L109.805 384.158C107.455 377.376 105.078 361.044 104.61 357.212H73.9764C73.429 364.079 70.2541 369.46 68.9356 376.228C68.4776 378.582 67.3684 380.891 67.7446 385.949C67.7446 385.949 77.4359 386.421 78.9427 381.814Z" fill="#5DC1BB"/>
<path d="M92.655 295.823C92.549 297.325 94.4389 295.656 94.5332 296.814C94.5332 296.814 94.6993 297.855 94.6562 301.806L95.5985 304.019C95.5985 304.019 102.103 299.378 102.103 287.641C102.103 287.641 102.15 281.613 93.8846 278.205C93.8846 278.205 75.7074 273.295 77.5419 291.409C77.5419 291.409 78.7643 285.362 82.9204 285.248C82.9204 285.248 93.564 282.897 92.655 295.823Z" fill="#161C35"/>
<path d="M93.9398 299.889C94.234 300.115 94.61 300.246 95.0802 300.238C96.3532 300.219 97.4089 299.029 97.4379 297.581C97.4667 296.137 96.464 294.974 95.1934 294.995C94.5908 295.006 94.0362 295.275 93.6169 295.714C93.0069 296.35 92.9877 297.53 93.1323 298.342C93.2457 298.994 93.501 299.551 93.9398 299.889Z" fill="#F69575"/>
<path d="M94.6801 296.343C94.7546 295.581 96.2928 296.308 96.0591 296.734C95.9241 296.982 95.6541 297.163 95.4418 297.336C95.1551 297.573 95.0126 297.791 94.9692 298.164C94.9647 298.209 94.9562 298.34 95.0006 298.372C95.2009 298.51 95.8516 297.767 95.9938 297.61C96.2761 297.307 96.3144 296.779 96.1794 296.396C96.0351 295.991 95.7696 295.799 95.3359 295.826C94.9911 295.847 94.639 295.871 94.6582 296.3C94.6609 296.308 94.6753 296.38 94.6801 296.343Z" fill="#EB7963"/>
<path d="M95.1718 297.128C95.0102 296.971 94.8584 297.102 94.6944 297.221C94.5437 297.331 94.4582 297.49 94.4196 297.669C94.3304 298.063 94.3834 298.592 94.6124 298.939C94.7932 299.215 95.0994 299.383 95.4346 299.378C95.8987 299.362 96.0372 298.952 96.0542 298.563C96.059 298.457 96.0686 298.209 95.9661 298.145C95.8543 298.076 95.7744 298.246 95.7022 298.318C95.5984 298.417 95.4466 298.457 95.3092 298.47C95.0464 298.491 94.786 298.358 94.622 298.161C94.5932 298.129 94.5666 298.084 94.5498 298.041C94.5522 298.297 94.5642 298.356 94.5932 298.214C94.6124 298.148 94.6414 298.087 94.68 298.033C94.786 297.855 94.9668 297.735 95.0874 297.565C95.1455 297.485 95.2514 297.213 95.1718 297.128Z" fill="#EB7963"/>
<path d="M88.5638 285.296C89.6307 286.015 90.5648 287.266 90.9181 288.512C91.5774 290.818 90.2493 292.357 89.3789 294.373C88.6049 296.167 88.7327 297.866 89.9742 299.301C91.129 300.635 92.296 301.639 92.6211 303.46C92.8866 304.94 92.6163 305.846 91.6303 306.948C90.372 308.362 89.5716 309.587 89.451 311.573C89.4004 312.388 89.304 313.312 89.8488 313.964C90.2804 314.475 91.093 314.598 91.5364 315.167C92.4669 316.363 92.1802 318.07 91.5316 319.297C90.4708 321.315 93.5277 324.481 96.9196 323.874C100.164 323.294 98.4458 320.218 102.103 320.423C103.372 320.493 104.997 320.703 105.91 319.497C106.719 318.421 106.109 317.255 106.601 316.15C107.493 314.129 110.509 315.844 111.235 313.557C111.635 312.294 111.351 311.52 110.712 310.495C109.914 309.206 109.511 307.885 109.256 306.413C109.176 305.947 108.978 305.502 108.954 305.044C108.925 304.496 109.233 303.793 109.036 303.282C108.831 302.752 108.014 302.446 107.594 302.097C106.971 301.583 106.317 300.968 105.974 300.214C105.456 299.077 105.55 297.682 105.49 296.452C105.426 295.187 104.844 294.591 104.301 293.465C103.544 291.886 103.923 290.629 103.59 289.034C103.366 287.95 102.64 286.925 102.028 286.041C100.777 284.239 100.058 282.167 98.3662 280.772C97.1424 279.763 96.288 280.29 94.8779 280.005C94.1883 279.867 93.6771 279.385 93.0165 279.18C92.2356 278.94 91.3388 278.954 90.519 279.009C88.9544 279.113 87.8745 280.013 86.2881 280.098C84.8706 280.17 82.4141 281.27 83.3662 283.107C84.2198 284.75 87.1705 284.359 88.5638 285.296Z" fill="#161C35"/>
<path d="M406.54 358.435C376.971 358.435 353.003 334.469 353.003 304.901C353.003 275.334 376.971 251.361 406.54 251.361C436.105 251.361 460.079 275.334 460.079 304.901C460.079 334.469 436.105 358.435 406.54 358.435ZM508.183 314.17C508.461 311.113 508.623 308.025 508.623 304.901C508.623 301.768 508.461 298.679 508.183 295.614C491.48 286.876 488.696 276.84 498.797 261.158C496.263 255.851 493.28 250.796 489.91 246.028C471.388 247.207 464.232 240.049 465.406 221.533C460.65 218.166 455.595 215.173 450.275 212.649C449.289 213.279 441.379 212.112 440.43 212.649C426.388 220.587 424.014 218.909 415.817 203.254C412.759 202.982 409.673 202.814 406.54 202.814C403.416 202.814 400.321 202.982 397.263 203.254C388.523 219.963 376.403 219.37 360.726 209.282C355.412 211.807 354.567 211.37 345.102 216.821C346.288 235.347 341.692 247.207 323.172 246.028C319.799 250.796 316.813 255.851 314.289 261.158C324.389 276.84 321.603 286.876 304.899 295.614C304.625 298.679 304.463 301.768 304.463 304.901C304.463 308.025 304.625 311.113 304.899 314.17C321.603 322.919 324.389 332.957 314.289 348.634C316.813 353.946 319.799 359.007 323.163 363.771C341.692 362.583 345.586 373.018 344.397 391.539C349.162 394.907 354.214 397.897 359.534 400.418C375.211 390.324 388.523 389.837 397.263 406.542C400.321 406.817 403.416 406.979 406.54 406.979C409.673 406.979 412.759 406.817 415.817 406.542C424.566 389.837 430.851 389.904 445.329 400.583C450.64 398.062 460.65 391.64 465.415 388.274C464.232 369.748 471.388 362.583 489.91 363.771C493.283 359.007 496.266 353.946 498.797 348.634C488.696 332.957 491.48 322.919 508.183 314.17Z" fill="#3293C7"/>
<path d="M396.701 358.434C367.126 358.434 343.158 334.469 343.158 304.901C343.158 275.333 367.126 251.359 396.701 251.359C426.264 251.359 450.238 275.333 450.238 304.901C450.238 334.469 426.264 358.434 396.701 358.434ZM498.341 314.169C498.617 311.113 498.776 308.024 498.776 304.901C498.776 301.767 498.617 298.678 498.341 295.614C481.634 286.875 478.855 276.84 488.944 261.158C486.423 255.851 483.436 250.793 480.067 246.029C461.539 247.207 454.382 240.049 455.563 221.533C450.808 218.164 445.746 215.172 440.431 212.647C424.755 222.742 414.718 219.961 405.973 203.253C402.916 202.981 399.825 202.813 396.692 202.813C393.568 202.813 390.48 202.981 387.42 203.253C378.675 219.961 368.638 222.742 352.962 212.647C347.65 215.172 342.592 218.164 337.824 221.533C339.011 240.049 331.848 247.207 313.326 246.029C309.957 250.793 306.974 255.851 304.445 261.158C314.541 276.84 311.756 286.875 295.051 295.614C294.782 298.678 294.617 301.767 294.617 304.901C294.617 308.024 294.782 311.113 295.051 314.169C311.756 322.918 314.541 332.956 304.445 348.634C306.967 353.945 309.957 359.007 313.326 363.77C331.848 362.583 339.011 369.748 337.824 388.274C342.592 391.639 347.638 394.627 352.959 397.143C368.638 387.052 378.675 389.837 387.42 406.542C390.48 406.816 393.568 406.978 396.692 406.978C399.825 406.978 402.916 406.816 405.973 406.542C414.718 389.837 424.755 387.052 440.431 397.143C445.749 394.627 450.808 391.639 455.569 388.274C454.382 369.748 461.539 362.583 480.067 363.77C483.436 359.007 486.423 353.945 488.95 348.634C478.855 332.956 481.634 322.918 498.341 314.169Z" fill="#4BB1DD"/>
<path d="M396.702 358.434C367.126 358.434 343.158 334.468 343.158 304.9C343.158 275.332 367.126 251.358 396.702 251.358C426.263 251.358 450.24 275.332 450.24 304.9C450.24 334.468 426.263 358.434 396.702 358.434ZM396.702 239.301C360.467 239.301 331.101 268.67 331.101 304.9C331.101 341.125 360.467 370.496 396.702 370.496C432.925 370.496 462.293 341.125 462.293 304.9C462.293 268.67 432.925 239.301 396.702 239.301Z" fill="#4267BA"/>
<path d="M361.933 297.227V456.542C361.933 475.044 376.926 490.048 395.434 490.048C413.936 490.048 428.937 475.044 428.937 456.542V297.227H361.933Z" fill="#4267BA"/>
<path d="M162.993 490.048H398.586C371.364 485.333 375.89 447.99 375.89 447.99V164.731H134.22V443.799C134.22 443.799 128.111 490.048 162.993 490.048Z" fill="#DBF3F6"/>
<path d="M398.586 490.048C371.364 485.333 375.89 447.99 375.89 447.99V164.731H383.183V447.99C383.183 447.99 381.942 483.78 398.586 490.048Z" fill="#99D3F3"/>
<path d="M347.121 203.637H162.993V194.094H347.121V203.637Z" fill="#94D2F2"/>
<path d="M347.121 246.97H211.179V240.687H347.121V246.97Z" fill="#A3D6F3"/>
<path d="M323.025 215.557H187.083V209.276H323.025V215.557Z" fill="#A3D6F3"/>
<path d="M260.739 265.814H211.179V259.533H260.739V265.814Z" fill="#A3D6F3"/>
<path d="M347.121 284.662H211.179V278.378H347.121V284.662Z" fill="#A3D6F3"/>
<path d="M347.121 303.505H162.993V297.227H347.121V303.505Z" fill="#A3D6F3"/>
<path d="M347.121 322.353H162.993V316.07H347.121V322.353Z" fill="#A3D6F3"/>
<path d="M260.81 341.199H162.993V334.918H260.81V341.199Z" fill="#A3D6F3"/>
<path d="M347.121 378.891H211.179V372.607H347.121V378.891Z" fill="#A3D6F3"/>
<path d="M347.121 397.737H211.179V391.456H347.121V397.737Z" fill="#A3D6F3"/>
<path d="M347.121 416.58H211.179V410.299H347.121V416.58Z" fill="#A3D6F3"/>
<path d="M347.121 435.428H162.993V429.147H347.121V435.428Z" fill="#A3D6F3"/>
<path d="M226.767 454.274H162.993V447.99H226.767V454.274Z" fill="#A3D6F3"/>
<path d="M203.494 284.662H162.993V240.687H203.494V284.662Z" fill="#A3D6F3"/>
<path d="M203.494 416.58H162.993V371.87H203.494V416.58Z" fill="#A3D6F3"/>
<path d="M405.849 334.98C405.849 339.895 401.869 343.875 396.954 343.875H318.732C313.817 343.875 309.831 339.895 309.831 334.98V278.037C309.831 273.122 313.817 269.139 318.732 269.139H396.954C401.869 269.139 405.849 273.122 405.849 278.037V334.98Z" fill="#38468E"/>
<path d="M401.403 331.297C401.403 336.21 397.417 340.193 392.505 340.193H318.732C313.817 340.193 309.831 336.21 309.831 331.297V278.037C309.831 273.122 313.817 269.139 318.732 269.139H392.505C397.417 269.139 401.403 273.122 401.403 278.037V331.297Z" fill="#5A5CAB"/>
<path d="M321.414 335.549V357.369L342.544 335.549H321.414Z" fill="#5A5CAB"/>
<path d="M345.824 304.666C345.824 307.723 343.348 310.199 340.294 310.199C337.235 310.199 334.759 307.723 334.759 304.666C334.759 301.609 337.235 299.13 340.294 299.13C343.348 299.13 345.824 301.609 345.824 304.666Z" fill="#4267BA"/>
<path d="M344.16 304.666C344.16 307.723 341.678 310.199 338.624 310.199C335.568 310.199 333.086 307.723 333.086 304.666C333.086 301.609 335.568 299.13 338.624 299.13C341.678 299.13 344.16 301.609 344.16 304.666Z" fill="white"/>
<path d="M364.212 304.666C364.212 307.723 361.736 310.199 358.679 310.199C355.617 310.199 353.141 307.723 353.141 304.666C353.141 301.609 355.617 299.13 358.679 299.13C361.736 299.13 364.212 301.609 364.212 304.666Z" fill="#4267BA"/>
<path d="M362.543 304.666C362.543 307.723 360.064 310.199 357.01 310.199C353.953 310.199 351.477 307.723 351.477 304.666C351.477 301.609 353.953 299.13 357.01 299.13C360.064 299.13 362.543 301.609 362.543 304.666Z" fill="white"/>
<path d="M382.595 304.666C382.595 307.723 380.118 310.199 377.062 310.199C374.005 310.199 371.529 307.723 371.529 304.666C371.529 301.609 374.005 299.13 377.062 299.13C380.118 299.13 382.595 301.609 382.595 304.666Z" fill="#4267BA"/>
<path d="M380.93 304.666C380.93 307.723 378.449 310.199 375.392 310.199C372.336 310.199 369.859 307.723 369.859 304.666C369.859 301.609 372.336 299.13 375.392 299.13C378.449 299.13 380.93 301.609 380.93 304.666Z" fill="white"/>
<path d="M286.175 49.5688C285.352 50.9188 285.019 52.7112 284.647 54.233C284.122 56.3789 283.845 59.343 284.476 61.5111C285.182 63.9403 285.922 66.1308 285.792 68.7924C285.677 71.1038 284.868 73.4438 285.264 75.8157C286.138 81.0371 294.099 79.649 297.241 77.675C300.172 75.8317 302.529 73.1541 303.061 69.6806C303.956 63.8671 302.494 57.264 298.761 52.6921C297.622 51.2945 296.2 49.8363 294.892 48.6647C293.503 47.4166 293.165 46.0476 290.899 46.6048C289.304 46.9964 287.041 48.1425 286.175 49.5688Z" fill="#AD4B32"/>
<path d="M273.549 91.6429C273.549 91.6429 269.361 120.656 269.878 131.749C269.878 131.749 275.355 134.777 278.26 132.038C278.26 132.038 285.422 110.602 287.539 94.1844C287.539 94.1844 282.797 83.862 273.549 91.6429Z" fill="#F69575"/>
<path d="M250.578 148.122L246.892 148.457L243.1 149.533C243.469 150.808 245.933 150.15 245.933 150.15C242.341 151.86 240.067 153.069 240.067 153.069C239.137 153.979 240.226 154.163 240.226 154.163C242.01 153.662 245.031 152.283 245.031 152.283C243.38 153.455 240.002 155.707 240.002 155.707C239.354 156.639 240.397 156.639 240.397 156.639C242.613 156.088 245.684 153.66 245.684 153.66C244.021 155.042 241.96 156.802 241.96 156.802C241.41 157.536 242.115 157.726 242.115 157.726C242.886 157.931 246.681 154.861 246.681 154.861L245.582 156.333C244.457 157.837 245.477 157.912 245.477 157.912L246.362 157.246C248.631 155.497 250.072 153.154 250.072 153.154L252.287 150.481L250.578 148.122Z" fill="#F69575"/>
<path d="M269.844 128.498C269.844 128.498 258.736 140.187 250.202 148.238C250.202 148.238 250.185 151.944 252.21 150.835C267.853 142.259 278.154 134.238 278.258 132.041C278.75 121.79 269.844 128.498 269.844 128.498Z" fill="#F69575"/>
<path d="M283.081 99.177C279.382 100.539 275.271 98.6729 273.898 95.0061C272.521 91.3422 274.403 87.2657 278.102 85.9009C281.8 84.5391 285.911 86.405 287.288 90.0718C288.661 93.7357 286.779 97.8122 283.081 99.177Z" fill="#F69575"/>
<path d="M286 126.048L275.49 93.8304C273.962 89.174 277.631 86.0608 277.631 86.0608L292.342 80.3249H302.824L318.333 86.3997C318.333 86.3997 321.149 89.174 319.621 93.8304L309.603 126.048H286Z" fill="#F69575"/>
<path d="M257.355 234.909C257.355 234.909 256.254 238.698 254.99 239.747C253.724 240.793 248.939 242.282 248.939 242.282L246.297 242.612C246.297 242.612 244.445 243.893 249.443 245.365C254.445 246.837 263.339 242.828 263.339 242.828L261.583 234.909H257.355Z" fill="#F69575"/>
<path d="M246.297 242.612L248.939 242.282C248.939 242.282 249.896 241.984 251.068 241.563C251.948 242.447 252.957 243.142 254.317 242.95C257.282 242.535 260.05 240.95 262.57 239.361L263.339 242.828C263.339 242.828 254.445 246.837 249.443 245.365C244.445 243.893 246.297 242.612 246.297 242.612Z" fill="#312952"/>
<path d="M263.659 243.538C263.347 243.679 257.09 246.467 252.001 246.467C251.013 246.467 250.07 246.366 249.223 246.116C246.646 245.354 245.369 244.51 245.2 243.453C245.089 242.766 245.963 242.513 246.297 242.612L246.74 243.198C246.742 243.206 246.967 243.823 249.663 244.617C254.329 245.991 263.067 242.034 263.154 241.997C263.154 241.997 263.437 242.511 263.659 243.538Z" fill="#261F3E"/>
<path d="M238.58 232.606C238.58 232.606 237.478 236.395 236.212 237.444C234.947 238.49 230.163 239.978 230.163 239.978L227.522 240.309C227.522 240.309 225.668 241.589 230.668 243.062C235.668 244.534 244.563 240.524 244.563 240.524L242.807 232.606H238.58Z" fill="#F69575"/>
<path d="M227.522 240.309L230.163 239.978C230.163 239.978 231.121 239.68 232.29 239.259C233.17 240.143 234.18 240.838 235.542 240.647C238.506 240.231 241.275 238.65 243.794 237.058L244.563 240.524C244.563 240.524 235.668 244.534 230.668 243.062C225.668 241.589 227.522 240.309 227.522 240.309Z" fill="#312952"/>
<path d="M244.884 241.235C244.571 241.376 238.315 244.167 233.225 244.167C232.238 244.167 231.294 244.06 230.447 243.81C227.871 243.051 226.593 242.207 226.425 241.15C226.314 240.463 227.186 240.21 227.522 240.308L227.964 240.897C227.965 240.902 228.192 241.52 230.887 242.313C235.553 243.687 244.291 239.731 244.379 239.693C244.379 239.693 244.661 240.207 244.884 241.235Z" fill="#261F3E"/>
<path d="M231.736 173.214C231.736 173.214 238.196 230.566 238.602 232.656C240.513 233.956 242.83 232.656 242.83 232.656C242.807 229.789 247.372 204.297 247.695 199.803C248.25 192.081 249.398 184.972 244.519 173.875L231.736 173.214Z" fill="#F69575"/>
<path d="M250.491 175.517C250.491 175.517 256.952 232.869 257.36 234.959C259.663 236.259 261.587 234.959 261.587 234.959C261.566 232.092 266.129 206.6 266.452 202.109C267.006 194.384 268.154 187.275 263.276 176.178L250.491 175.517Z" fill="#F69575"/>
<path d="M287.034 141.724C280.431 143.425 276.456 150.156 278.155 156.759C279.853 163.363 286.584 167.338 293.19 165.637C299.793 163.938 303.769 157.207 302.067 150.604C300.369 143.998 293.638 140.025 287.034 141.724Z" fill="#161C22"/>
<path d="M230.89 161.11C254.865 145.664 285.983 142.048 285.983 142.048C285.983 142.048 294.924 152.997 293.19 165.636C293.19 165.636 257.058 175.536 233.24 178.915C233.24 178.915 225.779 166.965 230.89 161.11Z" fill="#282041"/>
<path d="M279.317 151.812C280.003 140.144 285.998 126.052 285.998 126.052H309.601C309.601 126.052 317.338 138.084 318.833 151.812L303.181 161.862H292.34C292.34 161.862 282.168 159.595 279.317 151.812Z" fill="#312952"/>
<path d="M301.064 141.676C294.881 144.549 292.195 151.892 295.07 158.075C297.94 164.26 305.284 166.944 311.469 164.071C317.652 161.198 320.335 153.854 317.465 147.672C314.592 141.487 307.246 138.803 301.064 141.676Z" fill="#312952"/>
<path d="M248.556 171.513C269.323 151.964 299.125 142.802 299.125 142.802C299.125 142.802 310.875 151.328 311.469 164.071C311.469 164.071 277.345 181.218 254.538 188.873C254.538 188.873 246.412 177.381 248.556 171.513Z" fill="#312952"/>
<path d="M229.307 168.84C228.647 178.313 235.793 231.623 235.793 231.623C238.455 233.349 243.864 231.623 243.864 231.623C254.857 182.605 246.876 175.105 246.876 175.105C246.876 175.105 233.568 164.462 229.307 168.84Z" fill="#282041"/>
<path d="M248.396 175.517C248.676 193.263 255.537 233.056 255.537 233.056C260.875 235.479 263.338 232.068 263.338 232.068C273.876 196.805 266.663 177.408 266.663 177.408C266.663 177.408 249.975 168.999 248.396 175.517Z" fill="#312952"/>
<path d="M302.892 69.896V80.3266H292.352V69.896H302.892Z" fill="#F69575"/>
<path d="M292.408 77.772V69.896H302.892V76.472C295.97 77.9117 293.888 77.772 292.408 77.772Z" fill="#E27462"/>
<path d="M292.671 76.5475C292.671 76.5475 289.562 76.916 287.7 71.1411C287.7 71.1411 282.823 58.9051 289.029 50.4778C291.423 47.2282 297.467 47.2695 300.896 48.5243C305.284 50.1316 307.204 54.7312 307.204 59.0449C307.204 59.0481 305.455 67.0815 305.455 67.0815C305.455 67.0815 304.555 70.8901 301.815 73.0502C301.815 73.0502 297.161 76.6079 292.671 76.5475Z" fill="#F69575"/>
<path d="M286.003 58.3807C284.193 40.5227 302.115 45.3653 302.115 45.3653C310.262 48.7245 310.217 54.6643 310.217 54.6643C310.217 66.235 303.805 70.8105 303.805 70.8105L302.871 68.6289C302.916 64.7324 302.754 63.7059 302.754 63.7059C302.663 62.5669 300.797 64.2111 300.903 62.7342C300.903 62.7342 300.874 61.164 299.974 59.5648C299.135 58.0847 300.171 55.9803 296.539 53.5413C296.539 53.5413 288.125 51.7813 287.028 55.6875L286.003 58.3807Z" fill="#AD4B32"/>
<path d="M302.17 66.7357C302.46 66.961 302.83 67.0876 303.293 67.0783C304.55 67.0629 305.591 65.8869 305.62 64.4609C305.649 63.0349 304.659 61.8929 303.408 61.9114C302.812 61.9207 302.266 62.1892 301.853 62.6213C301.249 63.251 301.23 64.4115 301.374 65.211C301.488 65.853 301.738 66.4024 302.17 66.7357Z" fill="#F69575"/>
<path d="M302.894 63.2442C302.972 62.492 304.487 63.2103 304.258 63.6326C304.124 63.8731 303.861 64.0519 303.65 64.2214C303.366 64.4557 303.224 64.6685 303.185 65.0415C303.179 65.0847 303.171 65.2141 303.214 65.245C303.411 65.3806 304.053 64.6469 304.194 64.4958C304.473 64.1906 304.511 63.6727 304.375 63.2966C304.234 62.8989 303.973 62.7078 303.544 62.7355C303.203 62.754 302.857 62.7787 302.878 63.201C302.878 63.2103 302.894 63.2812 302.894 63.2442Z" fill="#EB7963"/>
<path d="M303.383 64.0189C303.226 63.859 303.074 63.9912 302.915 64.105C302.766 64.2157 302.68 64.3725 302.643 64.5477C302.555 64.9382 302.608 65.4577 302.832 65.799C303.013 66.0726 303.314 66.2417 303.644 66.2294C304.099 66.2171 304.238 65.8144 304.254 65.427C304.259 65.3286 304.267 65.0827 304.169 65.0181C304.054 64.9474 303.98 65.1195 303.905 65.1903C303.804 65.2886 303.655 65.3255 303.519 65.3348C303.258 65.3563 303.005 65.2272 302.843 65.0335C302.814 64.9997 302.787 64.9597 302.771 64.9167C302.774 65.1688 302.787 65.2241 302.814 65.0857C302.832 65.0212 302.861 64.9627 302.896 64.9074C303.002 64.7322 303.181 64.6123 303.301 64.4462C303.357 64.3694 303.463 64.0988 303.383 64.0189Z" fill="#EB7963"/>
<path d="M280.41 110.064L284.111 123.807C284.111 123.807 274.989 146.609 279.747 147.747C283.139 151.917 290.921 151.917 290.921 151.917C297.098 147.863 303.847 153.571 303.847 153.571C313.088 156.893 318.615 150.136 318.615 150.136C319.089 150.098 319.415 149.692 319.631 149.022C318.615 143.16 317.477 140.646 316.303 136.915C314.469 131.05 309.934 129.482 311.938 123.057C313.363 118.478 315.056 111.703 317.572 107.738L317.711 106.792C315.915 105.266 314.564 103.135 313.55 100.891C311.129 95.5331 313.488 90.4148 314.679 84.9616L306.888 81.9178C306.888 81.9178 304.357 87.2466 297.528 87.211C297.528 87.211 292.431 88.1831 288.246 81.9238L285.878 82.8455L280.41 98.5945C280.41 98.5945 277.88 104.712 280.41 110.064Z" fill="#B364AB"/>
<path d="M323.347 92.2924C323.347 92.2924 327.536 121.307 327.02 132.397C327.02 132.397 321.546 135.43 318.636 132.689C318.636 132.689 311.724 112.048 309.604 95.6322C309.604 95.6322 314.103 84.5133 323.347 92.2924Z" fill="#F69575"/>
<path d="M318.637 132.686C318.637 132.686 322.854 152.561 324.147 161.247C324.147 161.247 326.209 162.848 327.404 160.874C328.616 158.864 328.162 131.031 326.338 129.803C317.828 124.068 318.637 132.686 318.637 132.686Z" fill="#F69575"/>
<path d="M324.907 167.234L325.844 170.672L324.367 175.56C324.367 175.56 325.32 176.226 326.092 174.591L327.447 170.544L326.72 166.63L324.907 167.234Z" fill="#E1886A"/>
<path d="M325.983 168.305L327.112 171.689L325.906 176.649C325.906 176.649 326.896 177.262 327.575 175.584L328.704 171.468L327.759 167.602L325.983 168.305Z" fill="#E1886A"/>
<path d="M329.99 168.613L328.866 164.619L327.564 159.651L324.353 159.592L323.906 165.048L323.978 167.876L324.116 171.734L324.095 172.985C324.095 172.985 325.122 173.19 325.658 171.132L326.03 167.437L327.74 170.099L327.175 177.424C327.175 177.424 327.782 177.767 328.445 176.697L330.221 169.407L329.99 168.613Z" fill="#F69575"/>
<path d="M309.608 90.7206C308.235 94.3871 310.117 98.4631 313.816 99.8266C317.512 101.187 321.627 99.323 323.002 95.6565C324.371 91.9899 322.492 87.914 318.796 86.5504L314.682 84.9601C314.682 84.9601 310.703 86.4915 309.608 90.7206Z" fill="#F69575"/>
<path d="M287.738 52.7937C293.934 49.8438 295.225 55.0635 296.541 60.0694C297.228 62.6872 298.498 66.5661 298.852 69.1967C299.158 71.4762 299.475 73.6949 298.823 76.0031C298 78.9274 295.212 82.9596 299.6 84.4568C301.661 85.1624 302.649 83.8183 304.326 82.9883C306.244 82.0369 307.91 82.7169 309.841 83.001C314.128 83.6268 316.287 79.5787 315.099 76.0191C314.426 73.995 313.542 72.7659 314.09 70.7547C314.556 69.0531 315.467 67.3706 315.653 65.6403C316.162 60.8292 310.757 58.4699 310.035 53.9238C309.162 48.4008 304.257 44.6241 299.076 44.8604C297.318 44.9402 296.426 47.1781 294.765 47.6697C292.77 48.2604 291.761 49.4256 290.079 50.2557L287.738 52.7937Z" fill="#AD4B32"/>
</svg>
