<svg width="42" height="44" viewBox="0 0 42 44" fill="none" xmlns="http://www.w3.org/2000/svg">
<path fill-rule="evenodd" clip-rule="evenodd" d="M7.48019 0C6.44738 0 5.61019 0.924639 5.61019 2.06522V12.3913H1.89188C1.85429 12.3909 1.81652 12.3917 1.77912 12.3937C1.50049 12.4084 1.23794 12.4905 1.00438 12.6255C0.807469 12.7388 0.626634 12.8924 0.472172 13.0846C0.178956 13.4489 0.000561 13.9286 0 14.4543V41.3044C0 42.445 0.837199 43.3696 1.87 43.3696H39.27C40.3028 43.3696 41.14 42.445 41.14 41.3044V14.4867C41.1443 14.1764 41.0856 13.8634 40.9607 13.5726C40.941 13.5271 40.9199 13.4821 40.8969 13.4378C40.8531 13.3524 40.804 13.2709 40.7497 13.1937C40.5646 12.929 40.3325 12.7274 40.076 12.5925C39.8611 12.4789 39.6234 12.4094 39.3727 12.3944C39.3313 12.3918 39.2898 12.3908 39.2483 12.3913H35.5302V2.06522C35.5302 0.924639 34.6928 0 33.6602 0H7.48019ZM3.74 39.2391V18.587L19.4482 31.5978C20.113 32.1486 21.0272 32.1486 21.6922 31.5978L37.4 18.587V39.2391H3.74ZM22.44 9.29348C22.44 8.1529 21.6028 7.22826 20.57 7.22826C19.5372 7.22826 18.7 8.1529 18.7 9.29348V15.6663L17.2173 14.0288C16.487 13.2223 15.303 13.2223 14.5727 14.0288C13.8425 14.8353 13.8425 16.1429 14.5727 16.9495L19.2472 22.1119L19.2516 22.1168C19.43 22.3126 19.6352 22.4607 19.8542 22.5606C20.0746 22.6616 20.3164 22.7174 20.57 22.7174C20.8236 22.7174 21.0654 22.6616 21.2858 22.5606C21.5048 22.4607 21.71 22.3126 21.8884 22.1168L21.8923 22.1125L26.5673 16.9495C27.2975 16.1429 27.2975 14.8353 26.5673 14.0288C25.837 13.2223 24.653 13.2223 23.9227 14.0288L22.44 15.6663V9.29348Z" fill="#1ED070"/>
</svg>
