<?xml version="1.0" encoding="UTF-8" standalone="no"?>
<svg
   xmlns:dc="http://purl.org/dc/elements/1.1/"
   xmlns:cc="http://creativecommons.org/ns#"
   xmlns:rdf="http://www.w3.org/1999/02/22-rdf-syntax-ns#"
   xmlns:svg="http://www.w3.org/2000/svg"
   xmlns="http://www.w3.org/2000/svg"
   xmlns:sodipodi="http://sodipodi.sourceforge.net/DTD/sodipodi-0.dtd"
   xmlns:inkscape="http://www.inkscape.org/namespaces/inkscape"
   version="1.1"
   id="svg2"
   xml:space="preserve"
   width="666.6665"
   height="333.3333"
   viewBox="0 0 4666.6665 3333.3333"
   sodipodi:docname="590.eps"><metadata
     id="metadata8"><rdf:RDF><cc:Work
         rdf:about=""><dc:format>image/svg+xml</dc:format><dc:type
           rdf:resource="http://purl.org/dc/dcmitype/StillImage" /></cc:Work></rdf:RDF></metadata><defs
     id="defs6" /><sodipodi:namedview
     pagecolor="#ffffff"
     bordercolor="#666666"
     borderopacity="1"
     objecttolerance="10"
     gridtolerance="10"
     guidetolerance="10"
     inkscape:pageopacity="0"
     inkscape:pageshadow="2"
     inkscape:window-width="640"
     inkscape:window-height="480"
     id="namedview4" /><g
     id="g10"
     inkscape:groupmode="layer"
     inkscape:label="ink_ext_XXXXXX"
     transform="matrix(1.3333333,0,0,-1.3333333,0,3333.3333)"><g
       id="g12"
       transform="scale(0.1)"><path
         d="M 35000,0 H 0 V 25000 H 35000 V 0"
         style="fill:#ffffff;fill-opacity:1;fill-rule:nonzero;stroke:none"
         id="path14" /><path
         d="m 11371.2,2994.6 c 0,0 -4635.7,5951.5 -4537.25,8897.9 98.45,2946.5 10889.25,10752.6 13682.65,10331.7 2793.4,-420.9 3596.9,-7040.8 1339.3,-11862.3 -2257.7,-4821.4 3252.5,-1339.3 3750,1568.9 497.4,2908.2 5663.2,-3561.1 -1148,-8936.2 H 11371.2"
         style="fill:#deefff;fill-opacity:1;fill-rule:nonzero;stroke:none"
         id="path16" /><path
         d="m 20266.1,17471.4 c -131.7,0 -238.8,-107.1 -238.8,-238.7 0,-131.6 107.1,-238.7 238.8,-238.7 131.6,0 238.7,107.1 238.7,238.7 0,131.6 -107.1,238.7 -238.7,238.7 z m 0,-598.4 c -198.4,0 -359.7,161.4 -359.7,359.7 0,198.3 161.3,359.6 359.7,359.6 198.3,0 359.6,-161.3 359.6,-359.6 0,-198.3 -161.3,-359.7 -359.6,-359.7"
         style="fill:#99bbdd;fill-opacity:1;fill-rule:nonzero;stroke:none"
         id="path18" /><path
         d="m 11758.8,18340.2 c -131.7,0 -238.8,-107 -238.8,-238.7 0,-131.6 107.1,-238.7 238.8,-238.7 131.6,0 238.7,107.1 238.7,238.7 0,131.7 -107.1,238.7 -238.7,238.7 z m 0,-598.3 c -198.3,0 -359.7,161.3 -359.7,359.6 0,198.3 161.4,359.7 359.7,359.7 198.3,0 359.6,-161.4 359.6,-359.7 0,-198.3 -161.3,-359.6 -359.6,-359.6"
         style="fill:#99bbdd;fill-opacity:1;fill-rule:nonzero;stroke:none"
         id="path20" /><path
         d="m 19004.7,21959.8 c -90.1,0 -163.4,-73.3 -163.4,-163.4 0,-90.1 73.3,-163.4 163.4,-163.4 90.1,0 163.4,73.3 163.4,163.4 0,90.1 -73.3,163.4 -163.4,163.4 z m 0,-447.7 c -156.8,0 -284.3,127.5 -284.3,284.3 0,156.8 127.5,284.4 284.3,284.4 156.8,0 284.3,-127.6 284.3,-284.4 0,-156.8 -127.5,-284.3 -284.3,-284.3"
         style="fill:#99bbdd;fill-opacity:1;fill-rule:nonzero;stroke:none"
         id="path22" /><path
         d="m 28208.3,13460.7 c -131.6,0 -238.7,-107.1 -238.7,-238.7 0,-131.6 107.1,-238.7 238.7,-238.7 131.6,0 238.7,107.1 238.7,238.7 0,131.6 -107.1,238.7 -238.7,238.7 z m 0,-598.4 c -198.3,0 -359.7,161.4 -359.7,359.7 0,198.3 161.4,359.7 359.7,359.7 198.3,0 359.7,-161.4 359.7,-359.7 0,-198.3 -161.4,-359.7 -359.7,-359.7"
         style="fill:#99bbdd;fill-opacity:1;fill-rule:nonzero;stroke:none"
         id="path24" /><path
         d="m 24635.7,19062.1 857.7,-3080.5 1617.6,887.6 -91.3,3293.4 z m 782.1,-3259.9 -926.2,3326.6 2643.9,1220.5 98.4,-3550.6 -1816.1,-996.5"
         style="fill:#99bbdd;fill-opacity:1;fill-rule:nonzero;stroke:none"
         id="path26" /><path
         d="m 21578.4,18671.7 1600.3,-2880 1844.1,61 -832.4,3087.4 z m 1530.4,-3003.3 -17.9,32.3 -1707.2,3072.6 2896.7,297.6 898.9,-3334.1 -2070.5,-68.4"
         style="fill:#99bbdd;fill-opacity:1;fill-rule:nonzero;stroke:none"
         id="path28" /><path
         d="m 24309.7,18963.2 846.8,-3090.6 211.6,58 -846.8,3090.6 z m 762.1,-3239.2 -910.7,3323.9 444.9,121.9 910.7,-3323.9 -444.9,-121.9"
         style="fill:#99bbdd;fill-opacity:1;fill-rule:nonzero;stroke:none"
         id="path30" /><path
         d="m 21787.4,18755.9 -94.7,75.1 191.6,241.5 15.3,6 c 761.6,293.7 1388.1,344.1 1779.4,334.7 427.1,-10.2 671.4,-90.2 681.6,-93.5 l 30.7,-10.3 66.6,-242.9 -116.7,-32 -49.1,179.2 c -76.4,20.7 -294.8,71.5 -622.1,78.8 -376.7,8.4 -978.3,-40.7 -1711.5,-321 l -171.1,-215.6"
         style="fill:#99bbdd;fill-opacity:1;fill-rule:nonzero;stroke:none"
         id="path32" /><path
         d="m 24341.2,19034.5 -66.6,243 21.2,24.4 c 7,8.1 176.5,201.4 538.8,428 331.9,207.5 896.6,483.4 1701.4,618.9 l 16.3,2.8 287.9,-110.2 -43.2,-112.9 -257.1,98.3 c -773.6,-132.6 -1316.3,-397 -1636.1,-596.2 -277.8,-173.2 -439.8,-328.1 -495,-384.9 l 49.1,-179.2 -116.7,-32"
         style="fill:#99bbdd;fill-opacity:1;fill-rule:nonzero;stroke:none"
         id="path34" /><path
         d="m 21876.4,18981.7 -496.1,553.1 207.4,-63.2 c 2.9,-0.9 345.2,-94 1372.4,109 1092.2,215.8 1418.7,-264.8 1432.1,-285.4 l -101.4,-65.9 50.7,33 -50.4,-33.3 c -0.8,1 -74.5,108.4 -269.3,190.5 -182.4,76.9 -510.7,146.7 -1038.2,42.5 -673.6,-133.1 -1061.3,-142.2 -1259.2,-129.7 l 242,-269.9 -90,-80.7"
         style="fill:#99bbdd;fill-opacity:1;fill-rule:nonzero;stroke:none"
         id="path36" /><path
         d="m 24346.7,18599.3 -31.9,116.6 332.8,91.2 31.9,-116.7 -332.8,-91.1"
         style="fill:#99bbdd;fill-opacity:1;fill-rule:nonzero;stroke:none"
         id="path38" /><path
         d="m 24421.3,18326.9 -31.9,116.7 332.8,91.2 32,-116.7 -332.9,-91.2"
         style="fill:#99bbdd;fill-opacity:1;fill-rule:nonzero;stroke:none"
         id="path40" /><path
         d="m 25025.3,16139.1 -32.8,116.4 332.2,93.5 32.8,-116.4 -332.2,-93.5"
         style="fill:#99bbdd;fill-opacity:1;fill-rule:nonzero;stroke:none"
         id="path42" /><path
         d="m 24948.8,16410.9 -32.8,116.4 332.2,93.5 32.7,-116.4 -332.1,-93.5"
         style="fill:#99bbdd;fill-opacity:1;fill-rule:nonzero;stroke:none"
         id="path44" /><path
         d="m 24241.8,19138.3 c -88,10.3 -175.6,16.4 -263.2,21.8 -87.6,5 -175.3,7.5 -263,9.5 -43.8,0.4 -87.7,1.5 -131.6,1.2 -21.9,0.1 -43.9,0.8 -65.8,0.3 -22,-0.4 -44,-0.5 -66,-0.4 -22,0.3 -43.9,-0.4 -65.9,-0.7 l -66.1,-0.5 c -44.1,-0.3 -88.2,-1.6 -132.7,-0.4 43.4,8.8 87.2,16.1 131,22.6 44,5.2 87.9,11.4 132.2,14.4 44.1,3.9 88.4,6.2 132.7,7.7 22.2,0.6 44.4,1.6 66.5,1.5 l 66.6,-0.4 c 88.7,-1.9 177.4,-8 265.5,-19.7 44,-5.9 87.8,-13.2 131.3,-22.3 43.4,-9.5 86.7,-19.7 128.5,-34.6"
         style="fill:#99bbdd;fill-opacity:1;fill-rule:nonzero;stroke:none"
         id="path46" /><path
         d="m 23486.9,19066.6 c -120.6,-0.9 -240.4,-6.8 -360,-14.4 -119.6,-8 -238.9,-18.8 -358,-31.6 -29.7,-3.2 -59.4,-7.1 -89.2,-10.5 l -44.6,-5.1 -44.5,-6.1 -89.2,-11.5 c -29.6,-4.6 -59.2,-9 -88.9,-13.1 l -44.6,-6.3 c -14.9,-2.1 -29.6,-5 -44.4,-7.2 l -89,-13.9 c -59.4,-9 -118.5,-20.3 -178.3,-28.5 28.7,9.1 57.6,17.7 86.5,26.1 l 43.5,12.5 c 14.5,4.2 29.1,8.1 43.7,11.7 58.7,14 117.1,29.4 176.4,40.5 29.6,6 59.2,12 88.8,17.5 l 89.4,14.8 44.7,7.1 44.9,5.9 c 30,3.7 59.9,7.8 89.9,11.1 120.1,13.1 240.8,20.4 361.6,21.8 120.7,1 241.8,-3 361.3,-20.8"
         style="fill:#99bbdd;fill-opacity:1;fill-rule:nonzero;stroke:none"
         id="path48" /><path
         d="m 24396,19210.2 c 70.3,63.8 144.8,122.5 220.9,178.9 76.1,56.3 154.2,110.1 234,161.1 79.8,51.1 161.9,98.7 245.5,143.6 83.8,44.3 169.8,85 258.6,118.5 l -241,-149.2 -238.7,-151.1 -238.5,-152 c -79.6,-50.7 -159.4,-101.1 -240.8,-149.8"
         style="fill:#99bbdd;fill-opacity:1;fill-rule:nonzero;stroke:none"
         id="path50" /><path
         d="m 24864.3,19370.5 c 109.3,75.5 222.3,145.2 336.6,212.4 28.5,16.9 57.2,33.6 86.2,49.8 28.8,16.3 57.7,32.7 86.7,48.7 58.1,32.1 116.9,62.9 175.5,94 l 88.8,44.8 c 29.6,15 59.4,29.8 89.4,44 59.8,28.6 120,56.7 180.8,83.3 121.8,53 245.4,102.2 372.3,141.6 -120,-57 -238.8,-114.8 -357.2,-173.6 -29.5,-15.1 -58.9,-30.1 -88.6,-44.7 -29.6,-14.5 -58.8,-30.1 -88.3,-45.1 -59.1,-29.5 -117.7,-60.2 -176.4,-90.6 l -88.1,-45.5 -87.9,-45.9 -176.1,-91.7 c -117.4,-61.2 -234.9,-122.2 -353.7,-181.5"
         style="fill:#99bbdd;fill-opacity:1;fill-rule:nonzero;stroke:none"
         id="path52" /><path
         d="m 7862,3126.1 -93.94,8.3 c 2.58,29.4 277.11,2966.2 1777.79,5185.2 l 78.1,-52.9 C 8136.8,6067.7 7864.58,3155.2 7862,3126.1"
         style="fill:#99bbdd;fill-opacity:1;fill-rule:nonzero;stroke:none"
         id="path54" /><path
         d="m 7409.5,3127.1 -94.12,6.3 c 3.41,50.2 333.05,5030.1 -167.42,6559.3 l 89.6,29.4 c 506.19,-1546.6 185.8,-6389.6 171.94,-6595"
         style="fill:#99bbdd;fill-opacity:1;fill-rule:nonzero;stroke:none"
         id="path56" /><path
         d="m 6806.25,3127.6 c -1.43,25.4 -160.05,2548.5 -1816.2,3569.7 l 49.46,80.3 C 6737.96,5730.3 6898.94,3158.7 6900.37,3132.8 l -94.12,-5.2"
         style="fill:#99bbdd;fill-opacity:1;fill-rule:nonzero;stroke:none"
         id="path58" /><path
         d="m 8297.59,3119.5 -91.81,21.5 c 1.7,7.2 172.02,731.5 358.65,1440.5 97.94,372.2 297.83,477.8 458.43,562.8 159.19,84.2 274.21,145 256.8,440.9 -10.54,179.3 -31.73,311.8 -48.76,418.2 -44.71,279.6 -65.11,407.2 189.52,761.6 149.29,207.7 281.35,274.4 377.77,323.1 125.2,63.3 188.05,95 198.13,406.3 2.86,89.7 4.18,165.2 5.38,230 6.3,361.2 7.1,407.6 238.9,738.6 61.3,87.7 31.6,180.7 -4.1,243.3 -88.4,154.9 -329.09,310.9 -560.57,293 -167.37,-12.9 -292.48,-115.7 -361.73,-297.3 -226.6,-593.9 -365.2,-694.3 -616.79,-876.6 -55.9,-40.6 -119.26,-86.5 -189.94,-143 -360.77,-288.6 -471.19,-425.1 -397.7,-938.2 45.26,-316.4 -125.34,-674.8 -275.81,-991 -104.25,-219 -202.7,-425.9 -195.33,-558.7 18.83,-338.8 -112.73,-1997.5 -118.34,-2068 l -94.03,7.5 c 1.38,17.2 136.66,1722.8 118.25,2055.3 -8.75,156.8 89.97,364.2 204.3,604.4 144.77,304.2 308.84,648.9 267.58,937.1 -79.75,557.1 55.16,723.7 432.14,1025.2 72.43,58 136.76,104.6 193.53,145.7 236.91,171.7 367.45,266.3 584,833.9 82.06,215 239.21,342 442.6,357.7 245.06,19.1 530.04,-130.5 649.74,-340.2 69.6,-122 69.4,-244.2 -0.6,-344.2 -215.2,-307.4 -215.7,-336 -221.8,-686.2 -1.2,-65.2 -2.5,-141.1 -5.5,-231.4 -11.2,-350.1 -97.81,-410.6 -249.77,-487.3 -92.64,-46.8 -207.94,-105.1 -343.68,-294.1 -232.03,-322.8 -215.96,-423.3 -173.05,-691.6 17.36,-108.5 38.96,-243.6 49.78,-427.5 20.95,-356.5 -138.28,-440.7 -306.85,-529.9 -151.81,-80.3 -323.94,-171.3 -411.33,-503.4 -186.25,-707.8 -356.3,-1430.8 -358.01,-1438"
         style="fill:#99bbdd;fill-opacity:1;fill-rule:nonzero;stroke:none"
         id="path60" /><path
         d="m 6526.61,3122.1 c -1.65,9.5 -170.69,951.5 -527.5,1201.3 -391.99,274.4 -509.82,480.6 -548.08,959 -5.21,65.3 -8.98,123.3 -12.39,175.3 -21.05,323.3 -24.82,381.6 -243.45,483.6 -76.16,35.5 -147.3,53.8 -216.05,71.5 -177.88,45.6 -331.48,85 -376.52,399.3 -22.19,155.1 -91.9,219.9 -172.62,294.9 -106.78,99.4 -227.84,212 -204.95,543.9 11.79,171 106.55,233.6 184,256 313.34,91.1 956.51,-319.5 1127.02,-551.9 127.27,-173.6 227.79,-209.4 344.24,-250.8 65.25,-23.2 132.71,-47.3 208.86,-95.7 17.96,-11.5 36.38,-22.9 55.08,-34.5 195.51,-121.5 438.91,-272.8 475.7,-622.8 l 5.02,-47.7 c 33.94,-326.8 54.42,-524 256.43,-673.7 233.68,-173.2 214.25,-518.9 195.47,-853.2 l -4.01,-73.6 c -18.56,-352 14.22,-1162.7 14.55,-1170.8 l -94.21,-3.9 c -0.32,8.2 -33.29,823.3 -14.55,1179.6 l 4.09,74 c 18.15,323.5 35.32,629.2 -157.52,772.1 -235.34,174.5 -258.69,399.4 -294.05,739.7 l -4.97,47.7 c -32,304.1 -235.2,430.4 -431.73,552.5 -18.97,11.8 -37.66,23.4 -55.94,35 -67.14,42.8 -129.53,65 -189.85,86.4 -120.09,42.8 -244.28,87 -388.68,283.9 -154.76,211 -759.67,593.8 -1024.71,517.1 -45.68,-13.2 -107.42,-45.4 -116.12,-171.8 -19.8,-287.1 70.49,-371.1 175.06,-468.4 81.97,-76.2 174.84,-162.6 201.78,-350.6 36.09,-252 137.91,-278.1 306.57,-321.4 69.53,-17.9 148.36,-38.1 232.49,-77.3 269.23,-125.7 276.37,-235.8 297.68,-563 3.37,-51.5 7.09,-109.1 12.3,-173.8 36.33,-454.4 136.06,-628.9 508.12,-889.3 388.76,-272.2 559.27,-1222 566.37,-1262.3 l -92.93,-16.3"
         style="fill:#99bbdd;fill-opacity:1;fill-rule:nonzero;stroke:none"
         id="path62" /><path
         d="m 6993.15,4933.8 c 0,5.7 -3.31,576.1 -183.91,1052.4 -193.02,509 -226.4,720.5 -112.76,1345.4 58.11,319.8 -39.6,551.3 -143.07,796.5 -92.14,218.3 -187.4,444 -178.38,743 9.02,296.2 89.7,417.9 160.88,525.2 79.85,120.3 142.88,215.4 77.04,559.3 -44.99,234.8 184.32,440.6 422.61,496.6 245.43,57.9 575.44,-27.1 695.71,-457 147.48,-527.3 162.82,-852.4 173,-1067.6 10.4,-219.6 15.61,-329.8 136.71,-459.5 165.63,-177.5 134.13,-384.1 97.71,-623.4 -26.11,-171.2 -55.67,-365.3 -14.65,-580.5 l -92.64,-17.7 c -44.02,231.1 -13.17,433.7 14.04,612.4 34.13,223.9 61.06,400.8 -73.44,544.8 -144.68,155.1 -151.17,292.2 -161.9,519.5 -10.59,223.5 -25.05,529.6 -169.63,1046.6 -102.13,365.2 -368.09,441.1 -583.36,390.7 -195.88,-46.1 -386,-207.2 -351.51,-387.2 73.07,-381.7 -6.68,-501.9 -91.08,-629.2 -67.37,-101.5 -137.04,-206.5 -145.19,-475.8 -8.42,-278.5 82.75,-494.6 170.92,-703.5 104.3,-247.1 212.14,-502.6 148.96,-850.1 -109.49,-602.1 -77.4,-805.7 108.17,-1295.1 186.85,-492.7 190.03,-1061.7 190.08,-1085.7 l -94.31,-0.1"
         style="fill:#99bbdd;fill-opacity:1;fill-rule:nonzero;stroke:none"
         id="path64" /><path
         d="m 27534.7,3128.7 -89.1,30.7 c 42.2,122.3 1051.7,2997.9 2565.6,3319.4 l 19.6,-92.3 C 28568.9,6076.1 27544.9,3158.1 27534.7,3128.7"
         style="fill:#99bbdd;fill-opacity:1;fill-rule:nonzero;stroke:none"
         id="path66" /><path
         d="m 27082.7,3130.8 -90.5,26.5 c 10.6,36 1046.7,3628.5 510.1,6377.3 l 92.5,18.1 C 28135.9,6781.2 27093.3,3167 27082.7,3130.8"
         style="fill:#99bbdd;fill-opacity:1;fill-rule:nonzero;stroke:none"
         id="path68" /><path
         d="m 26577.2,3131.1 c -5.6,19.5 -567.6,1954.6 -1406.1,2253.8 -209.7,74.9 -422.9,38.4 -634,-108.1 l -53.8,77.4 c 237.5,165 479.5,205.2 719.6,119.5 884,-315.4 1441.7,-2235.1 1465,-2316.7 l -90.7,-25.9"
         style="fill:#99bbdd;fill-opacity:1;fill-rule:nonzero;stroke:none"
         id="path70" /><path
         d="m 26224,3119.5 c -2.5,4 -246.6,403.6 -450.5,681.5 -76.9,105 -189.1,126.6 -297.5,147.5 -153.6,29.6 -327.7,63.1 -315.1,360.7 l 1.6,37.7 c 11.1,257.9 19.1,444.2 -53.8,514.7 -34.7,33.5 -91.6,45.9 -179.9,39.1 -134.6,-10.3 -257.4,11.6 -365.9,30.9 -157.5,28.1 -293.4,52.4 -425.4,-23 -60.2,-34.4 -97.9,-21.7 -119.1,-5 -37.2,29.3 -43.8,86.5 -19.5,169.9 57.9,198.6 346.5,650.3 827.2,699 640.6,64.7 760.1,37.4 983.6,-225 95.7,-112.2 144.8,-180 180.6,-229.5 69.9,-96.4 77.2,-106.5 298.5,-241.8 307.7,-188 424.8,-360.1 379.7,-558 -43,-189.2 121.7,-1049 188.8,-1364.3 l -92.3,-19.6 c -10,47.1 -244.9,1156.8 -188.4,1404.8 23.3,102.5 6.1,247.1 -337,456.7 -228.6,139.7 -247.4,158.9 -325.6,266.9 -35,48.2 -82.8,114.2 -176,223.7 -191.7,224.9 -268.9,256.5 -902.5,192.2 -313.3,-31.7 -555.8,-268.8 -678.2,-480.2 -64.5,-111.4 -79.3,-185.2 -78.5,-213.9 3.2,1.4 7.2,3.3 11.9,6 161.9,92.4 320.6,64 488.8,33.9 108,-19.2 219.5,-39.2 342,-29.7 116.8,9.1 197.1,-11.6 252.7,-65.3 103.4,-100 95.1,-293.5 82.5,-586.5 l -1.6,-37.7 c -9.1,-216.4 84.2,-234.3 238.7,-264.1 114.5,-22 256.9,-49.5 355.8,-184.2 206.3,-281.3 452.4,-684.2 454.9,-688.3 l -80.5,-49.1"
         style="fill:#99bbdd;fill-opacity:1;fill-rule:nonzero;stroke:none"
         id="path72" /><path
         d="m 26730.1,3795.5 -89.3,30.3 c 1.4,4.1 138.9,413.9 194.2,967.3 25.1,251.5 -46.4,397.2 -115.5,538.1 -81.6,166 -165.9,337.8 -79.5,655.9 83.1,306.5 194.4,359.4 283.8,401.9 75.4,35.8 125.2,59.5 143.9,277.8 17.8,207.5 -45.1,283 -111.8,362.9 -84.2,101 -171.3,205.5 -67,529.2 75,232.9 155.8,329.9 220.6,407.8 84.3,101.2 135.1,162.3 95.4,520.2 -32.5,292.1 -126.8,408.1 -202.5,501.4 -86.7,106.7 -161.6,198.9 -80,465.5 121.5,397.2 269,742.6 729.7,605.8 374.7,-111.1 526.1,-515.4 395.2,-1055.1 -46.5,-191.8 41,-435.4 133.6,-693.2 120.9,-336.4 257.9,-717.6 116.5,-1066.9 -76.1,-188.2 -133.8,-294 -171.9,-364.1 -79.2,-145.6 -79.2,-145.6 -23.2,-529.6 21.5,-147.5 40.6,-253.5 54.6,-330.8 43.5,-241.9 45.4,-272.5 -28.8,-561.3 l -91.4,23.5 c 71.2,277.1 68.8,290.9 27.3,521.1 -14,78 -33.2,184.8 -55,333.8 -58.9,403.6 -58,420.1 33.7,588.4 39.3,72.2 93.2,171.2 167.3,354.4 127.9,315.9 3,663.5 -117.8,999.6 -97.5,271.6 -189.7,528 -136.5,747.3 119.6,493.3 -3.9,845.7 -330.4,942.5 -313.7,93.1 -457,-33.8 -612.8,-543 -66.8,-218.6 -17.9,-278.7 63.1,-378.5 79.1,-97.4 187.5,-230.7 223,-550.4 42.2,-380.1 -10.9,-464 -116.6,-590.9 -59.7,-71.7 -133.9,-160.9 -203.3,-376.4 -88.4,-274.3 -27.5,-347.4 49.6,-439.9 72.4,-86.8 154.5,-185.2 133.4,-431.3 -21.7,-253.3 -92.3,-305 -197.4,-355 -75.7,-36 -161.5,-76.8 -233.4,-341.4 -76.9,-283.8 -7.4,-425.5 73.3,-589.7 71.4,-145.6 152.5,-310.7 124.6,-589 -56.4,-564.7 -197.3,-984.1 -198.7,-988.2"
         style="fill:#99bbdd;fill-opacity:1;fill-rule:nonzero;stroke:none"
         id="path74" /><path
         d="m 27818.8,3134.1 -92.1,20 c 146.3,676.2 361.2,878.1 550.8,1056.3 104.2,97.9 194.3,182.5 257.9,339.1 31.1,76.6 57.4,142.6 80.4,200.6 114.1,287.2 152.5,383.9 316.1,589.1 102.3,128.4 186.2,136.8 283.4,146.5 99.8,10 224,22.4 438.6,186.9 218.3,167.4 212.5,283.5 208.3,368.3 -3.7,74.5 -7.9,159 149,192.2 82.1,17.3 186.7,19.5 288,21.7 155.9,3.2 332.6,6.9 374.7,69.1 13.6,20 12.6,51.1 -2.8,92.2 -30.3,81.1 -94,138.7 -189.2,171.2 -181.1,61.9 -453.1,19.3 -647.2,-100.9 -153.4,-94.9 -268.9,-55.9 -370.9,-21.5 -118.8,40.1 -221.4,74.7 -402.7,-69.2 -149.4,-118.5 -204.3,-257.4 -252.8,-380.1 -65.2,-165.1 -128,-321.1 -401.3,-307.6 -198.2,10.4 -243.7,-118 -312.1,-364 -47,-169.5 -100.4,-361.6 -245,-518.7 C 27537,4485.2 27255.8,3147.9 27253,3134.4 l -92.4,19.3 c 11.7,56 289.5,1376.3 619.8,1735.4 129.3,140.5 179.4,320.9 223.7,480.1 63.8,229.9 124.2,447 407.5,433.1 208.2,-11 245.4,87 309,248 50.2,127 112.7,285 281.8,419.3 221.5,175.7 364.9,127.3 491.6,84.6 98,-33 175.5,-59.2 291,12.4 219.7,135.9 518.7,181.3 727.3,109.9 121.6,-41.5 207,-120.1 247.1,-227.3 26.8,-71.5 24.2,-131.4 -7.4,-178.2 -69.5,-102.5 -254.7,-106.4 -450.8,-110.6 -96.9,-2 -197.1,-4.1 -270.5,-19.6 -78.2,-16.5 -77.7,-27 -74.3,-95.2 4.9,-99.7 12.4,-250.3 -245.2,-447.8 -235.8,-180.9 -380.7,-195.3 -486.5,-205.9 -88.3,-8.8 -141.5,-14.1 -219.1,-111.4 -154.7,-194.3 -188.9,-280.3 -302.1,-565.2 -23.2,-58.2 -49.5,-124.5 -80.7,-201.3 -71.4,-175.6 -173.1,-271.2 -280.7,-372.4 -179.6,-168.7 -383.1,-359.9 -523.3,-1007.5"
         style="fill:#99bbdd;fill-opacity:1;fill-rule:nonzero;stroke:none"
         id="path76" /><path
         d="M 28670.4,2759.4 H 5732.26 v 0 c 0,243.8 197.61,441.4 441.38,441.4 H 28229 c 243.8,0 441.4,-197.6 441.4,-441.4 v 0"
         style="fill:#576c89;fill-opacity:1;fill-rule:nonzero;stroke:none"
         id="path78" /><path
         d="m 7054.2,17737.6 c -987.64,0 -1809.58,-783.7 -1847.94,-1779 l -100.33,-2603.5 c -12.55,-325.6 242.12,-600.7 567.7,-613.3 l 2516.75,-96.9 c 157.83,-6.1 308.37,49.6 424.19,156.8 115.82,107.2 182.95,253.1 189.03,410.9 l 100.34,2603.5 c 19.03,493.8 -155.39,965.5 -491.13,1328.2 -335.74,362.6 -792.61,572.9 -1286.46,591.9 -24.14,0.9 -48.2,1.4 -72.15,1.4 z m 1159.62,-5214.1 c -9.35,0 -18.7,0.2 -28.1,0.5 l -2516.75,97 c -392.21,15.1 -699,346.5 -683.88,738.7 l 100.33,2603.6 c 20.28,526.1 244.22,1012.8 630.58,1370.5 386.37,357.7 888.85,543.6 1415.01,523.2 526.12,-20.3 1012.85,-244.2 1370.54,-630.6 357.68,-386.3 543.5,-888.8 523.23,-1415 l -100.34,-2603.5 c -7.32,-190 -88.19,-365.8 -227.72,-494.9 -132.63,-122.8 -303.18,-189.5 -482.9,-189.5"
         style="fill:#99bbdd;fill-opacity:1;fill-rule:nonzero;stroke:none"
         id="path80" /><path
         d="m 8219.54,15109 c -10.63,0 -21.26,0.2 -31.95,0.6 l -2321.48,89.5 c -216.08,8.3 -415.97,100.3 -562.87,259 -146.9,158.6 -223.22,365 -214.89,581.1 l 120.84,-4.7 c -14.62,-379.4 282.16,-700 661.58,-714.6 l 2321.48,-89.5 c 183.77,-7 359.35,57.9 494.32,182.8 134.98,125 213.21,295 220.3,478.8 l 120.84,-4.6 c -8.33,-216.1 -100.3,-416 -258.98,-562.9 -150.83,-139.6 -344.8,-215.5 -549.19,-215.5"
         style="fill:#99bbdd;fill-opacity:1;fill-rule:nonzero;stroke:none"
         id="path82" /><path
         d="m 8935.31,13490 -120.84,4.6 c 4.96,128.7 -40.51,251.7 -128.03,346.3 -87.53,94.5 -206.64,149.3 -335.38,154.3 l -2733.71,105.3 c -128.73,5 -251.71,-40.5 -346.25,-128 -94.54,-87.5 -149.34,-206.6 -154.3,-335.4 l -120.84,4.7 c 6.2,161 74.74,310 192.99,419.4 118.24,109.5 271.94,166.4 433.06,160.2 L 8355.72,14116 c 161.02,-6.2 309.99,-74.7 419.46,-193 109.47,-118.2 166.34,-272 160.13,-433"
         style="fill:#99bbdd;fill-opacity:1;fill-rule:nonzero;stroke:none"
         id="path84" /><path
         d="m 5025.21,14401 c -77.29,-9.5 -149.45,-42.8 -207.71,-96.7 -73.27,-67.9 -115.73,-160.2 -119.58,-259.9 l -13.37,-347.2 c -7.15,-185.4 122.67,-344.9 298.87,-380.7 z m 74.2,-1214.8 -60.42,2.3 c -272.57,10.5 -485.79,240.8 -475.28,513.4 l 13.37,347.1 c 5.09,132.1 61.29,254.2 158.26,344 96.97,89.8 223.12,136.4 355.14,131.3 l 60.42,-2.3 -51.49,-1335.8"
         style="fill:#99bbdd;fill-opacity:1;fill-rule:nonzero;stroke:none"
         id="path86" /><path
         d="m 8964.57,14249.2 -41.8,-1084.5 c 77.28,9.4 149.47,42.8 207.72,96.7 73.26,67.8 115.73,160.1 119.57,259.9 l 13.38,347.1 c 3.85,99.8 -31.39,195.1 -99.22,268.3 -53.92,58.3 -123.33,97.1 -199.65,112.5 z M 8876.8,13041 c -6.4,0 -12.84,0.1 -19.29,0.3 l -60.42,2.4 51.48,1335.8 60.42,-2.3 c 272.59,-10.6 485.8,-240.9 475.29,-513.4 l -13.38,-347.2 c -10.25,-266.1 -230.02,-475.6 -494.1,-475.6"
         style="fill:#99bbdd;fill-opacity:1;fill-rule:nonzero;stroke:none"
         id="path88" /><path
         d="m 7116.78,14950.6 -260.35,10.1 c -137.23,5.3 -245.18,121.9 -239.9,259.1 l 5.23,135.6 c 5.29,137.2 121.89,245.2 259.12,239.9 l 260.36,-10 c 137.22,-5.3 245.17,-121.9 239.88,-259.2 l -5.22,-135.6 c -5.29,-137.2 -121.9,-245.1 -259.12,-239.9"
         style="fill:#99bbdd;fill-opacity:1;fill-rule:nonzero;stroke:none"
         id="path90" /><path
         d="m 7304.27,17789.8 12.95,336 c 3.56,92.5 -68.76,170.6 -161.19,174.1 l -80.98,3.2 c -92.43,3.5 -170.55,-68.8 -174.11,-161.2 l -12.95,-336 -119.74,4.6 12.95,336 c 6.09,158 140.41,282.4 298.48,276.3 l 80.96,-3.1 c 158.07,-6.1 282.42,-140.4 276.33,-298.5 l -12.95,-336 -119.75,4.6"
         style="fill:#99bbdd;fill-opacity:1;fill-rule:nonzero;stroke:none"
         id="path92" /><path
         d="m 8379.98,13805.7 -2777.1,107.1 4.65,120.8 2777.1,-107 -4.65,-120.9"
         style="fill:#99bbdd;fill-opacity:1;fill-rule:nonzero;stroke:none"
         id="path94" /><path
         d="M 18164.7,5524.6 H 25301 c 0,0 -124.6,-516.5 -124.6,-1078 0,-545.3 124.6,-1078 124.6,-1078 h -7136.3 c -253.1,0 -458.3,205.3 -458.3,458.4 v 1238.7 c 0,253.6 205.2,458.9 458.3,458.9"
         style="fill:#fae0b2;fill-opacity:1;fill-rule:nonzero;stroke:none"
         id="path96" /><path
         d="m 25397.2,5817.8 c 81.2,0 146.6,-66 146.6,-146.6 0,-40.6 -16.1,-77.2 -43,-103.6 -26.4,-26.9 -63,-43 -103.6,-43 h -96.2 -7136.3 c -253.1,0 -458.3,-205.3 -458.3,-458.9 V 3827 c 0,-253.1 205.2,-458.4 458.3,-458.4 h 7136.3 96.2 c 81.2,0 146.6,-65.4 146.6,-146.5 0,-40.6 -16.1,-76.8 -43,-103.6 -26.4,-26.4 -63,-43 -103.6,-43 h -7232.5 c -415.3,0 -751.5,336.6 -751.5,751.5 v 1239.2 c 0,414.9 336.2,751.6 751.5,751.6 h 7232.5"
         style="fill:#184655;fill-opacity:1;fill-rule:nonzero;stroke:none"
         id="path98" /><path
         d="m 18635.4,5107.3 c 422.6,18.9 845.2,31.5 1267.7,38 422.6,7.8 845.2,9.8 1267.8,10.8 422.6,-0.8 845.1,-2.9 1267.7,-10.7 422.6,-6.4 845.2,-19.1 1267.7,-38.1 -422.5,-19 -845.1,-31.8 -1267.7,-38.1 -422.6,-7.8 -845.1,-9.9 -1267.7,-10.8 -422.6,1 -845.2,3.1 -1267.8,10.9 -422.5,6.4 -845.1,19.1 -1267.7,38"
         style="fill:#e5bd83;fill-opacity:1;fill-rule:nonzero;stroke:none"
         id="path100" /><path
         d="m 18371.1,4446.6 c 159.7,20.2 319.4,30.8 479,38 159.7,7.8 319.4,9.8 479.1,10.8 159.6,-0.8 319.3,-2.9 479,-10.7 159.6,-7.2 319.3,-17.8 479,-38.1 -159.7,-20.4 -319.4,-31 -479,-38.2 -159.7,-7.7 -319.4,-9.8 -479,-10.7 -159.7,1 -319.4,3.1 -479.1,10.9 -159.6,7.2 -319.3,17.8 -479,38"
         style="fill:#e5bd83;fill-opacity:1;fill-rule:nonzero;stroke:none"
         id="path102" /><path
         d="m 19593.4,3769.3 c 159.7,20.3 319.4,30.8 479.1,38 159.6,7.8 319.3,9.9 479,10.9 159.6,-0.9 319.3,-3 479,-10.7 159.7,-7.2 319.3,-17.8 479,-38.2 -159.7,-20.3 -319.3,-30.9 -479,-38.1 -159.7,-7.8 -319.4,-9.8 -479,-10.7 -159.7,1 -319.4,3.1 -479,10.9 -159.7,7.1 -319.4,17.7 -479.1,37.9"
         style="fill:#e5bd83;fill-opacity:1;fill-rule:nonzero;stroke:none"
         id="path104" /><path
         d="m 20601.6,4165.8 c 369,18.9 738,31.5 1106.9,38 369,7.8 738,9.8 1107,10.8 369,-0.8 737.9,-2.9 1106.9,-10.7 369,-6.4 738,-19.1 1107,-38.1 -369,-19 -738,-31.8 -1107,-38.2 -369,-7.7 -737.9,-9.8 -1106.9,-10.7 -369,1 -738,3.1 -1107,10.9 -368.9,6.4 -737.9,19.1 -1106.9,38"
         style="fill:#e5bd83;fill-opacity:1;fill-rule:nonzero;stroke:none"
         id="path106" /><path
         d="m 19857.7,3141.7 c -216.1,408.1 -216.1,896.7 0,1304.9 -407.4,0 -814.8,0 -1222.3,0 -216.1,-408.2 -216.1,-896.8 0,-1304.9 144.9,111 305.8,228.1 482.8,347.8 230.5,-119.7 477,-236.8 739.5,-347.8"
         style="fill:#50bfa5;fill-opacity:1;fill-rule:nonzero;stroke:none"
         id="path108" /><path
         d="m 27310.6,5817.8 h -9167.4 v 2130.7 h 9167.4 V 5817.8"
         style="fill:#fe875e;fill-opacity:1;fill-rule:nonzero;stroke:none"
         id="path110" /><path
         d="m 19590.1,5817.8 h -542.5 v 2130.7 h 542.5 V 5817.8"
         style="fill:#f7a491;fill-opacity:1;fill-rule:nonzero;stroke:none"
         id="path112" /><path
         d="m 25863.7,5817.8 h 542.5 v 2130.7 h -542.5 V 5817.8"
         style="fill:#f7a491;fill-opacity:1;fill-rule:nonzero;stroke:none"
         id="path114" /><path
         d="m 18143.2,7056.6 c 0,0 -693.7,-334.5 -805.2,-1238.8 l 297.3,247.7 105.3,-247.7 c 0,0 68.1,768 402.6,1065.4 v 173.4"
         style="fill:#efefef;fill-opacity:1;fill-rule:nonzero;stroke:none"
         id="path116" /><path
         d="m 20144.4,9073.3 c 0,0 210.6,-489.1 -7.8,-1089.7 l -829.3,45.5 -2079.7,113.3 v 0.5 c 0,0 63.1,237 63.1,514.6 0,255 -63.1,515 -63.1,515 v 0.5 l 2049.9,-69.9 866.9,-29.8"
         style="fill:#fae0b2;fill-opacity:1;fill-rule:nonzero;stroke:none"
         id="path118" /><path
         d="m 17184.1,8144.9 43.5,-2.5 2079.7,-113.3 829.3,-45.5 c 218.4,600.6 7.8,1089.7 7.8,1089.7 l -866.9,29.8 -2049.9,69.9 -49.3,1.4 c -66,2.5 -117.8,56.2 -117.8,122.2 0,67 54.7,121.7 121.2,121.7 2,0 3.4,0 5.4,0 l 3079,-113.9 c 0,0 406.5,-675.3 0,-1549.5 l -3093.7,145.6 c -66.4,3.5 -118.2,59.6 -116.3,126.6 2.5,66 57.2,117.8 122.7,117.8 1.9,0 3.4,0 5.3,0"
         style="fill:#3c8f7c;fill-opacity:1;fill-rule:nonzero;stroke:none"
         id="path120" /><path
         d="m 17187.1,9418.3 8437.5,106.5 -46.4,-1.9 -5312.1,-218.5 -3079,113.9"
         style="fill:#3c8f7c;fill-opacity:1;fill-rule:nonzero;stroke:none"
         id="path122" /><path
         d="m 20369,9308.7 5209.2,214.2 c 259.4,10.2 475.9,-197 477.4,-456.9 l 3.4,-649 c 1.5,-248.2 -194,-452.4 -441.7,-461.7 l -5351.2,-200.4 c 406.5,874.2 0,1549.5 0,1549.5 l 102.9,4.3"
         style="fill:#184655;fill-opacity:1;fill-rule:nonzero;stroke:none"
         id="path124" /><path
         d="m 20128.9,8654.2 c -160.7,-11.3 -321,-13 -481.1,-11.3 -160.1,1.1 -319.9,7.9 -479.6,15.8 -159.6,9.7 -319.2,20.6 -478.4,37.3 -159.3,16 -318.4,35.4 -476.9,64.6 160.8,11.5 321.1,13.2 481.1,11.5 160.1,-1.1 319.9,-7.9 479.6,-15.9 159.6,-9.8 319.2,-20.8 478.4,-37.4 159.3,-16.1 318.4,-35.5 476.9,-64.6"
         style="fill:#e5bd83;fill-opacity:1;fill-rule:nonzero;stroke:none"
         id="path126" /><path
         d="m 18429.8,8398.1 c -178,-11.5 -354.8,-4.9 -531.2,6.1 -176.4,12.7 -352.4,29.9 -527.2,65.4 178,11.7 354.7,5 531.2,-6 176.3,-13 352.3,-30.2 527.2,-65.5"
         style="fill:#e5bd83;fill-opacity:1;fill-rule:nonzero;stroke:none"
         id="path128" /><path
         d="m 18715,7697.1 c -162.4,239.2 -145.9,807.2 30.1,1036.5 319.1,-9.2 626.5,-48.6 945.7,-57.9 -176.1,-229.3 -180.7,-767.2 -18.3,-1006.5 -198.7,71 -391.2,162.7 -570.6,266.1 -139.8,-94 -266.4,-176.5 -386.9,-238.2"
         style="fill:#f47458;fill-opacity:1;fill-rule:nonzero;stroke:none"
         id="path130" /><path
         d="m 20715.6,10849.7 150.8,-13.4 c -375.2,-27.3 -657,-353.1 -629.7,-728.3 l 15.1,-207.9 c 22.8,-313.1 254.3,-561.3 548.6,-618.4 l -2424.1,191 c -404.1,38.5 -698.9,399.1 -657.9,802.6 l 11.4,111.8 c 40.4,398.2 392.6,689.7 791.4,654.6 h 0.4 l 2194,-192"
         style="fill:#355389;fill-opacity:1;fill-rule:nonzero;stroke:none"
         id="path132" /><path
         d="m 26551.5,10974.1 -5685.1,-137.8 -150.8,13.4 -2194,192 h -0.4 l -26.4,2.4 8056.7,-70"
         style="fill:#355389;fill-opacity:1;fill-rule:nonzero;stroke:none"
         id="path134" /><path
         d="M 26388.4,10744.8 20879,10592.3 c -124.3,-10.4 -236.6,-72.4 -312.8,-173.4 -65.8,-88 -92.8,-199 -84.6,-309.1 l 14.3,-191.8 c 16.3,-223.5 204.3,-401.7 428.1,-404.9 12.7,-0.2 25.9,0.6 38.6,1.4 l 5.9,0.4 5428.9,131.2 134.9,3.4 c 63.6,1.5 115.6,-50.5 114.7,-114.1 l -0.3,-20 c -0.9,-60.1 -49,-108.7 -109.1,-110.3 l -5557,-134.3 c -61.6,-4.5 -122.2,-0.7 -180.2,10.9 -294.3,57.1 -525.8,305.3 -548.6,618.4 l -15.1,207.9 c -27.3,375.2 254.5,701 629.7,728.3 l 5685.1,137.8 c 63.5,1.5 115.6,-50.1 114.6,-114.1 -0.8,-60.1 -48.4,-108.7 -108.6,-110.3 l -169.1,-4.9"
         style="fill:#86b1f2;fill-opacity:1;fill-rule:nonzero;stroke:none"
         id="path136" /><path
         d="m 26397.4,9646.1 -5428.9,-131.2 -5.9,-0.4 c -12.7,-0.8 -25.9,-1.6 -38.6,-1.4 -223.8,3.2 -411.8,181.4 -428.1,404.9 l -14.3,191.8 c -8.2,110.1 18.8,221.1 84.6,309.1 76.2,101 188.5,163 312.8,173.4 l 5509.4,152.5 c -2.1,-9.7 -71.4,-337.6 -74.4,-548.2 -3.1,-209.6 83.4,-550.5 83.4,-550.5"
         style="fill:#fae0b2;fill-opacity:1;fill-rule:nonzero;stroke:none"
         id="path138" /><path
         d="m 20958.7,10274.1 c 158.9,26.7 318.3,43.8 477.8,57.6 159.4,14.3 319.1,23 478.9,30.5 159.8,5.7 319.7,10.2 479.8,9 160.1,-0.6 320.3,-4.7 480.9,-18.5 -159,-26.8 -318.3,-44 -477.8,-57.7 -159.5,-14.4 -319.2,-23 -478.9,-30.4 -159.8,-5.6 -319.7,-10.1 -479.8,-8.8 -160.1,0.6 -320.3,4.6 -480.9,18.3"
         style="fill:#e5bd83;fill-opacity:1;fill-rule:nonzero;stroke:none"
         id="path140" /><path
         d="m 22273.6,9829.2 c 159,26.7 318.3,43.9 477.8,57.6 159.5,14.3 319.2,23 478.9,30.5 159.8,5.7 319.7,10.2 479.8,9 160.1,-0.6 320.3,-4.7 480.9,-18.4 -158.9,-26.9 -318.3,-44.1 -477.8,-57.8 -159.4,-14.3 -319.1,-23 -478.9,-30.4 -159.8,-5.6 -319.7,-10 -479.8,-8.8 -160,0.6 -320.3,4.6 -480.9,18.3"
         style="fill:#e5bd83;fill-opacity:1;fill-rule:nonzero;stroke:none"
         id="path142" /><path
         d="m 22491.6,9000.1 c 220.3,295.9 233.4,1027.4 21.7,1329.5 -407.3,5.9 -769.3,-37.6 -1176.7,-31.7 211.8,-302.2 153.1,-984.2 -67.2,-1280.2 257.2,79.5 507.8,185.7 742.2,307.5 172.9,-127.6 329.8,-239.8 480,-325.1"
         style="fill:#50bfa5;fill-opacity:1;fill-rule:nonzero;stroke:none"
         id="path144" /><path
         d="m 23681.1,10117.2 c 218.8,26.8 437.9,44 657.1,57.8 219.1,14.4 438.5,23.1 657.9,30.7 219.4,5.8 438.9,10.4 658.5,9.2 219.7,-0.5 439.4,-4.5 659.4,-18.2 -218.8,-27 -437.9,-44.2 -657.1,-58 -219.1,-14.4 -438.5,-23.1 -657.9,-30.6 -219.4,-5.6 -438.9,-10.2 -658.6,-9 -219.6,0.5 -439.3,4.5 -659.3,18.1"
         style="fill:#e5bd83;fill-opacity:1;fill-rule:nonzero;stroke:none"
         id="path146" /><path
         d="m 20584.7,15277.3 9.1,-8451.7 -594.6,594.7 v 8443.1 l 232.2,-232.2 353.3,-353.9"
         style="fill:#e5bd83;fill-opacity:1;fill-rule:nonzero;stroke:none"
         id="path148" /><path
         d="m 19999.2,7420.3 594.6,-594.7 c -3076,515.6 -5570.5,-183.8 -5570.5,-183.8 H 13829.4 C 12059.8,7438 8338.72,6817.1 8338.72,6817.1 l 603.17,603.2 c 0,0 3715.21,621.5 5528.61,-241.4 1813.5,862.9 5528.7,241.4 5528.7,241.4"
         style="fill:#c9a16b;fill-opacity:1;fill-rule:nonzero;stroke:none"
         id="path150" /><path
         d="M 19999.2,15863.4 V 7420.3 c 0,0 -3715.2,621.5 -5528.7,-241.4 v 7711.7 c 0,0 2167.4,1680.7 5528.7,972.8"
         style="fill:#fae0b2;fill-opacity:1;fill-rule:nonzero;stroke:none"
         id="path152" /><path
         d="M 14470.5,14890.6 V 7178.9 c -1813.4,862.9 -5528.61,241.4 -5528.61,241.4 v 8443.1 c 3361.31,707.9 5528.61,-972.8 5528.61,-972.8"
         style="fill:#fae0b2;fill-opacity:1;fill-rule:nonzero;stroke:none"
         id="path154" /><path
         d="M 21325.9,15631.2 V 6332.4 c 0,0 -3801.6,664 -6302.6,0 h -1282.9 c -2608.9,796.1 -6125.22,0 -6125.22,0 v 9298.8 h 1094.47 l -408.87,-408.9 37.94,-8405.2 c 0,0 3721.08,620.9 5490.68,-175.3 h 1193.9 c 0,0 2494.5,699.4 5570.5,183.8 l -9.1,8451.7 -353.3,353.9 h 1094.5"
         style="fill:#3c8f7c;fill-opacity:1;fill-rule:nonzero;stroke:none"
         id="path156" /><path
         d="M 8941.89,15863.4 V 7420.3 l -603.17,-603.2 -37.94,8405.2 408.87,408.9 232.24,232.2"
         style="fill:#e5bd83;fill-opacity:1;fill-rule:nonzero;stroke:none"
         id="path158" /><path
         d="m 10575.7,7275.4 c 209.9,34.3 422.7,49 635.3,55.8 212.8,7.8 425.9,2.2 638.4,-11.5 106.3,-6.2 212.2,-18.1 318.2,-28.3 105.4,-15.2 211.5,-25.4 316,-46.3 210.2,-34 417.6,-84.1 621.3,-144.3 -105.5,14.7 -208.8,38.1 -314.2,50.7 -104.6,16.7 -209.2,32.4 -314.4,43.8 -209.9,25.5 -420.3,46.3 -631.2,59.2 -210.8,15.2 -422.2,22.4 -633.7,26.7 -211.6,3.5 -423.4,1.6 -635.7,-5.8"
         style="fill:#b28856;fill-opacity:1;fill-rule:nonzero;stroke:none"
         id="path160" /><path
         d="m 14466.1,6951.6 c -84.5,30.5 -169.2,59.2 -255.2,84 -85.2,27 -171.2,51.1 -257.5,73.7 -172.8,45 -346.3,86.6 -521,123.2 -174.6,36.9 -350.2,68.8 -526.4,99.3 -176.2,30.7 -353.4,55 -530.8,84.1 89.8,-1.1 179.5,-5.5 269.4,-9.6 89.4,-8.2 179.2,-13.9 268.4,-24.7 179,-18.9 356.5,-49.4 532.9,-85.2 175.8,-38.5 350.7,-82.2 521.7,-139 170.7,-56.8 340.3,-119.8 498.5,-205.8"
         style="fill:#b28856;fill-opacity:1;fill-rule:nonzero;stroke:none"
         id="path162" /><path
         d="m 20296.3,7087.4 -553,51.5 -552.3,49.1 -1106.1,92.1 c 92.7,4.7 185.4,6.6 278.2,8.1 92.7,-0.4 185.4,-1.1 278.1,-3.6 185.5,-3.6 370.6,-16.4 555.5,-31.5 184.7,-16.5 369.1,-36.7 552.5,-64.5 183.5,-27.2 366.5,-58 547.1,-101.2"
         style="fill:#b28856;fill-opacity:1;fill-rule:nonzero;stroke:none"
         id="path164" /><path
         d="m 18173.3,7443.4 c -212.4,7.4 -424.1,9.3 -635.7,5.7 -211.6,-4.2 -422.9,-11.4 -633.7,-26.6 -211,-12.9 -421.4,-33.7 -631.3,-59.2 -105.2,-11.4 -209.8,-27.1 -314.4,-43.8 -105.4,-12.7 -208.7,-36 -314.2,-50.7 203.7,60.2 411.1,110.3 621.3,144.3 104.5,20.9 210.6,31.1 316.1,46.3 105.9,10.2 211.8,22.1 318.1,28.3 212.5,13.7 425.7,19.3 638.4,11.5 212.7,-6.9 425.4,-21.5 635.4,-55.8"
         style="fill:#b28856;fill-opacity:1;fill-rule:nonzero;stroke:none"
         id="path166" /><path
         d="m 14423.4,6719.4 c 158.2,86 327.8,149 498.5,205.8 170.9,56.9 345.9,100.5 521.7,139.1 176.4,35.7 353.9,66.2 532.8,85.1 89.3,10.8 179.1,16.5 268.5,24.7 89.9,4.1 179.6,8.5 269.4,9.7 -177.4,-29.2 -354.7,-53.5 -530.8,-84.2 -176.2,-30.5 -351.8,-62.4 -526.4,-99.3 -174.7,-36.6 -348.2,-78.2 -521,-123.2 -86.3,-22.5 -172.4,-46.7 -257.5,-73.7 -86,-24.8 -170.7,-53.4 -255.2,-84"
         style="fill:#b28856;fill-opacity:1;fill-rule:nonzero;stroke:none"
         id="path168" /><path
         d="m 8742.99,7179.1 c 180.59,43.2 363.65,73.9 547.08,101.2 183.41,27.7 367.84,47.9 552.56,64.4 184.87,15.2 369.97,27.9 555.47,31.6 92.7,2.4 185.4,3.1 278.1,3.5 92.8,-1.5 185.5,-3.4 278.2,-8.1 L 9848.29,7279.6 9296,7230.5 8742.99,7179.1"
         style="fill:#b28856;fill-opacity:1;fill-rule:nonzero;stroke:none"
         id="path170" /><path
         d="m 11343.9,6260.1 c 165.1,325.7 185,724.5 53.1,1065 280.1,-14 560.2,-27.9 840.2,-41.9 132,-340.5 112.1,-739.4 -53.1,-1065.1 -95.1,95.7 -200.9,196.7 -317.7,300.5 -163.3,-89.8 -337.6,-176.9 -522.5,-258.5"
         style="fill:#184655;fill-opacity:1;fill-rule:nonzero;stroke:none"
         id="path172" /><path
         d="m 15023.3,6641.8 v -309.4 h -1193.9 v 309.4 h 1193.9"
         style="fill:#184655;fill-opacity:1;fill-rule:nonzero;stroke:none"
         id="path174" /><path
         d="m 14470.5,14890.6 c 40.6,-642.6 61.9,-1285.3 76.3,-1927.9 9.1,-321.3 11.1,-642.7 16.4,-964 l 5.4,-963.9 -5.2,-964 c -5.4,-321.3 -7.2,-642.6 -16.3,-964 -14.4,-642.6 -35.7,-1285.2 -76.6,-1927.9 -40.8,642.7 -62.2,1285.3 -76.5,1927.9 -9.2,321.4 -10.9,642.7 -16.4,964 l -5.1,964 5.4,963.9 c 5.3,321.3 7.3,642.7 16.4,964 14.4,642.6 35.6,1285.3 76.2,1927.9"
         style="fill:#f7cc7f;fill-opacity:1;fill-rule:nonzero;stroke:none"
         id="path176" /><path
         d="m 15306.9,17837 c 0,0 -4.9,218 136.3,465 141.2,247.1 835.5,755.9 917.9,1933.3 80.7,1154 -682.1,1791 -1839.2,1802.1 v 0.4 c -12,0.1 -23.6,-0.3 -35.3,-0.2 -11.8,-0.1 -23.5,0.3 -35.3,0.2 v -0.4 c -1157.2,-11.1 -1920,-648.1 -1839.3,-1802.1 82.4,-1177.4 776.7,-1686.2 917.9,-1933.3 141.2,-247 136.3,-465 136.3,-465 h 1640.7"
         style="fill:#f8c558;fill-opacity:1;fill-rule:nonzero;stroke:none"
         id="path178" /><path
         d="m 14522.5,22102.2 c 119.6,-5.7 239.1,-10.8 357.9,-29.3 59.7,-5.7 118.4,-19.4 177.2,-31.5 l 88.1,-18.8 86.6,-25.9 86.5,-25.9 c 28.5,-9.8 56.2,-22.2 84.2,-33.1 56.3,-22 112.3,-44.5 164.9,-74.8 54,-27.4 107.5,-55.5 156.8,-91.4 l 75.5,-50.6 c 24.4,-18 46.7,-38.8 70.2,-58 l 69.3,-58.9 62.3,-66.5 c 20.4,-22.5 42.1,-43.9 61.4,-67.3 l 53.7,-73.6 c 38,-47.6 67.2,-100.8 96,-154 32.1,-51.8 53.2,-108.7 76.1,-164.5 25.6,-55.2 39.5,-113.9 55.9,-171.9 18.9,-57.5 27.3,-117 36.8,-176.3 4.5,-29.6 10.4,-59.1 13.8,-89 l 5.6,-90.4 c 4.2,-60.5 8,-120.7 3.8,-178.7 -3.6,-59.3 -1.3,-115 -9.7,-177.7 l -20.6,-176.6 -32.9,-175 c -11.5,-58.1 -29.1,-114.9 -43.4,-172.4 -32.5,-114 -72.4,-225.9 -119.7,-334.6 -47,-108.7 -102.7,-213.4 -163.1,-315.1 -63.1,-99.9 -128.6,-198.3 -202.6,-290.3 -72.6,-92.8 -150,-181.6 -227.5,-269.3 -38.4,-44.6 -76.4,-87.2 -109.5,-134.7 -17.7,-23.9 -30.5,-48.1 -43.9,-74.4 -13.6,-25.6 -27.3,-51.2 -37.5,-78.3 -44.7,-106.4 -75.7,-220.8 -79.7,-336.4 h -16.2 c 1.4,119.1 30.2,235.6 73.5,345.6 9.8,28.1 23.1,54.6 36.5,81 12.4,26.3 26.7,54.1 43.4,77.9 32.7,49.4 71.9,95.4 108.8,140.4 75.7,89.8 150.3,179.5 220,272.8 71,92.6 133.2,190.9 192.9,290.5 57,101.2 109.2,205 152.8,312.4 43.7,107.3 80.1,217.5 109.4,329.5 12.5,56.5 28.5,112.3 38.4,169.3 l 28.2,171.2 16.2,172.9 c 6.4,53.8 3.1,115.9 5.3,173.4 3.1,59.2 -1.8,115.9 -6.9,172.3 l -6.6,85 c -3.6,28.2 -9.9,56.2 -14.6,84.4 -10.1,56.3 -19,112.8 -37.9,166.7 -16.5,54.5 -30.4,109.9 -55.5,161 -22.4,52.1 -42.8,105.3 -73.8,152.9 -27.9,49.2 -55.6,98.5 -92,142.1 l -51,67.6 c -18.3,21.3 -38.9,40.9 -58.2,61.5 l -58.9,60.8 -65.6,53.6 c -22.1,17.5 -42.9,36.6 -66.1,52.9 l -71.3,45.9 c -46.3,32.8 -97,58.2 -148,83 -49.6,27.5 -102.8,47.8 -156.1,67.5 -26.7,9.8 -52.7,21.1 -79.8,29.8 l -82.3,23.1 -82.2,23.2 -84.1,16.2 c -56.1,10.6 -111.9,22.8 -169.2,27.1 -113.4,15.9 -228.2,18.5 -342.9,22.2 l -63.5,2 -0.5,62.7 v 0.4 l 64,-64.7 -69.5,-0.8 65,65.5 v -0.4 l 0.7,-62 -65.5,-3.5 c -114.5,-5.8 -229,-10.8 -341.9,-28.9 -56.9,-5.3 -112.2,-18.7 -167.9,-30.4 l -83.3,-17.8 -81.2,-24.6 -81.2,-24.6 c -26.7,-9.1 -52.3,-20.8 -78.5,-31.2 -52.4,-20.5 -104.5,-41.6 -152.9,-69.9 -49.9,-25.4 -99.4,-51.4 -144.1,-84.6 l -69.2,-46.5 c -22.4,-16.4 -42.4,-35.8 -63.9,-53.2 l -63.5,-53.4 -56.5,-60.5 c -18.6,-20.3 -38.4,-39.7 -55.9,-60.8 l -48.7,-66.9 c -34.8,-42.8 -61.1,-91.3 -87.4,-139.7 -29.5,-46.9 -48.5,-99 -70.4,-149.6 -24.3,-49.8 -37.4,-104 -53.4,-157.2 -18.2,-52.5 -26.5,-107.9 -36.2,-162.9 -4.5,-27.5 -10.6,-54.8 -14.1,-82.6 l -6.2,-84.1 c -4.7,-56 -8.9,-112.1 -6,-168.7 1.9,-55.8 -1.8,-114.9 4.3,-168.2 l 15.6,-175.1 26.8,-166.8 c 9.4,-55.6 25,-111 37.1,-166.8 28.2,-110.5 63.7,-219.2 106.3,-325.2 43,-105.9 92.7,-209.1 147.2,-310 57.4,-99.4 117.5,-197.9 186.4,-290.8 67.5,-94 140.6,-184.2 214.6,-275.5 36.3,-46.7 73.4,-92.5 106.2,-144.8 8.1,-13.8 16.1,-25.2 23.9,-40.8 l 18.5,-40 c 12.5,-26.4 25,-52.9 34.6,-82.2 41.7,-113.7 66.4,-230.9 63.3,-350.7 l -16.1,0.3 c -8.6,114.7 -43.7,228.5 -90,331.2 -10.4,25.9 -25,51.5 -39.5,77 l -21.5,38.5 c -6,10 -15.7,22.1 -23.4,33 -32.9,44.8 -73,87.5 -112.1,130.5 -79.1,86 -158.2,174.3 -232.8,266.6 -76,91.4 -143.8,189.9 -209.1,290.1 -30.7,51.3 -61.8,102.6 -90.5,155.3 -26.4,53.8 -55.5,106.5 -78.3,162.1 -48.3,109.9 -89.2,223.3 -122.7,338.7 -14.7,58.3 -32.6,115.5 -44.7,175 l -34.3,179.5 -21.1,174.5 c -8.9,62.9 -6.9,121.7 -10.7,182.9 -4.4,60.6 0,121.4 4.5,182.2 l 6,91.3 c 3.5,30.3 9.7,60.5 14.5,90.8 10,60.5 18.9,121.2 38.3,180.1 17.1,59.2 31.6,119.2 58.1,175.7 23.4,57.3 45.8,115.1 79.5,167.7 30.4,54.2 61.1,108.1 100.7,156.4 l 56.1,74.5 c 20,23.5 42.3,45.2 63.6,67.8 l 64.6,66.8 71.6,59.1 c 24.1,19.3 47.2,40 72.5,57.7 l 77.6,50.1 c 50.6,35.4 105.4,62.9 160.5,89.6 53.9,29.6 110.9,51.3 168,72.4 28.7,10.6 56.8,22.6 85.7,31.8 l 87.5,24.4 87.6,24.5 88.9,17.1 c 59.4,11.1 118.4,23.7 178.5,28.3 119.4,16.4 239.2,19 358.9,22.4 l -64.8,-65.4 v 0.4 l 0.7,66 64.3,-0.6 71.6,-0.7 64.7,-0.7 -64.7,0.4"
         style="fill:#ffffff;fill-opacity:1;fill-rule:nonzero;stroke:none"
         id="path180" /><path
         d="m 13904.1,19495.4 c -63.3,-242 -37.8,-585.3 6.3,-652.4 10.4,13.5 31.1,49.7 57.3,143.4 68.2,245.2 6.6,409.9 -63.6,509 z m 999.1,-30.8 c -134.5,-179.4 -173.4,-526.6 -117.5,-614.2 6.5,-10.2 9.9,-9.6 12.9,-9 61.3,13.9 139.3,82.1 175.3,203.2 20.5,68.6 45.2,226.9 -70.7,420 z m -481.1,-3.4 c -60.5,-138.3 -100.8,-313.6 -104.3,-458.1 -3,-121 22.9,-160.1 32.2,-164.2 29.5,-13 71.8,19.5 105.3,81.5 66.1,122.7 90.6,340.9 -33.2,540.8 z M 13909.9,17837 c -3.9,9.5 -389.4,943.2 -524.1,1536 -48.8,214.5 34.4,306.2 88.5,341.6 97.3,64.1 247.7,45.2 374.1,-46.9 8.4,-6.2 16.7,-12.7 24.9,-19.5 23.2,46.7 51.5,85.7 85.6,113.5 53.6,43.7 145.2,78.2 277.6,-6.3 68.9,-44 125.9,-92.3 172.4,-143 46.4,72.6 101.2,128 163.6,152.3 60.8,23.8 156.1,28.6 264.4,-83.5 29,-29.9 54.5,-59.6 77.1,-88.8 76.4,59.8 164.4,75.3 258.4,45.1 56.4,-18.2 99.9,-58.3 129.4,-119.2 190.6,-394.5 -255.8,-1628.4 -275.6,-1681.4 h -99.1 c 4.7,12.7 476.9,1282.6 301.4,1646 -19.6,40.7 -46.2,65.9 -81,77.1 -68,22.1 -130.5,10.4 -186.4,-34.3 145.9,-228.7 115.3,-422 90.7,-504.4 -39.9,-134 -132.2,-235.8 -235.1,-259.2 -39.7,-8.9 -75.7,7.3 -99.4,44.6 -79.5,124.2 -28.2,513.7 125.1,712.4 4.3,5.5 8.6,10.9 13,16.2 -22.2,29.2 -47.7,59.1 -77,89.4 -62.7,65 -120.2,86.2 -176.3,64.3 -49.6,-19.3 -96.8,-72.3 -138,-143.9 172.2,-238.6 143.8,-512.8 62.7,-663.2 -56.6,-104.9 -137.3,-149.7 -210,-117.3 -56.5,25.3 -83.6,106.2 -80.3,240.5 3.7,155.5 49.6,368.8 130.3,532 -45.1,53.2 -102.3,103.9 -174.2,149.7 -93.2,59.7 -162.6,50.7 -218.5,-27.8 -14.7,-20.8 -27.6,-44.8 -39.1,-71.5 114.6,-132.4 188.1,-345.9 110.9,-623 -40,-143.9 -79.9,-206.4 -133.3,-209 -36.9,-1.2 -65.8,24.8 -86.4,78.8 -50.4,131.6 -66.9,490.8 14.6,734.1 -15.8,14.8 -29.8,25.9 -40.3,33.6 -99.2,72.3 -212.5,90.3 -281.5,44.7 -62.9,-41.3 -82,-132.2 -54,-255.7 133.3,-586 535.8,-1544.5 539.7,-1553.8 l -94.8,-0.2"
         style="fill:#fe875e;fill-opacity:1;fill-rule:nonzero;stroke:none"
         id="path182" /><path
         d="m 13678.1,21487.3 c -80.5,83.4 -283.3,18.3 -452.9,-145.4 -169.6,-163.7 -241.9,-364.1 -161.3,-447.6 80.6,-83.4 283.4,-18.4 453,145.3 169.6,163.7 241.8,364.2 161.2,447.7"
         style="fill:#ffffff;fill-opacity:1;fill-rule:nonzero;stroke:none"
         id="path184" /><path
         d="m 15568,17715 c 0,-67.3 -92.4,-121.9 -206.5,-121.9 h -1668.6 c -114.2,0 -206.6,54.6 -206.6,121.9 v 0 c 0,67.4 92.4,122 206.6,122 h 1668.6 c 114.1,0 206.5,-54.6 206.5,-122 v 0"
         style="fill:#efefef;fill-opacity:1;fill-rule:nonzero;stroke:none"
         id="path186" /><path
         d="m 15568,17471.1 c 0,-67.3 -92.4,-121.9 -206.5,-121.9 h -1668.6 c -114.2,0 -206.6,54.6 -206.6,121.9 v 0 c 0,67.3 92.4,122 206.6,122 h 1668.6 c 114.1,0 206.5,-54.7 206.5,-122 v 0"
         style="fill:#d6d6d6;fill-opacity:1;fill-rule:nonzero;stroke:none"
         id="path188" /><path
         d="m 15568,17227.2 c 0,-67.3 -92.4,-121.9 -206.5,-121.9 h -1668.6 c -114.2,0 -206.6,54.6 -206.6,121.9 v 0 c 0,67.3 92.4,122 206.6,122 h 1668.6 c 114.1,0 206.5,-54.7 206.5,-122 v 0"
         style="fill:#efefef;fill-opacity:1;fill-rule:nonzero;stroke:none"
         id="path190" /><path
         d="m 15568,16983.3 c 0,-67.4 -92.4,-122 -206.5,-122 h -1668.6 c -114.2,0 -206.6,54.6 -206.6,122 v 0 c 0,67.3 92.4,122 206.6,122 h 1668.6 c 114.1,0 206.5,-54.7 206.5,-122 v 0"
         style="fill:#d6d6d6;fill-opacity:1;fill-rule:nonzero;stroke:none"
         id="path192" /><path
         d="m 14527.2,16861.3 h -881.4 V 16753 l 340,-131.6 h 541.4 541.5 l 339.9,131.6 v 108.3 h -881.4"
         style="fill:#efefef;fill-opacity:1;fill-rule:nonzero;stroke:none"
         id="path194" /></g></g></svg>
